<svg width="72" height="73" viewBox="0 0 72 73" fill="none" xmlns="http://www.w3.org/2000/svg">
<path d="M71.5844 36.1122C71.5844 55.7214 55.7262 71.808 35.8878 71.808C16.2829 71.808 0.414787 55.723 0.415608 36.1122C0.415608 16.5006 16.2837 0.415608 35.8878 0.415608C55.7254 0.415608 71.5844 16.5022 71.5844 36.1122Z" fill="white" stroke="#49ADF4" stroke-width="0.831217"/>
<path d="M58.3618 31.4897C57.5962 31.0446 56.9082 30.4776 56.3249 29.8111C56.3839 28.8832 56.6049 27.9728 56.9779 27.1212C57.664 25.1856 58.4396 22.9931 57.1948 21.2885C55.95 19.584 53.5995 19.6382 51.5367 19.6854C50.6252 19.7792 49.7043 19.717 48.8137 19.5015C48.3392 18.7294 48.0003 17.8818 47.8117 16.9954C47.227 15.0033 46.5598 12.7518 44.5111 12.0775C42.5355 11.441 40.706 12.8414 39.0887 14.072C38.3909 14.7093 37.5822 15.2135 36.7029 15.5596C35.8143 15.2163 34.9967 14.712 34.2911 14.072C32.6785 12.8484 30.8561 11.4339 28.871 12.0799C26.827 12.7447 26.1598 15.0033 25.5704 16.9954C25.3821 17.8789 25.0466 18.7245 24.5779 19.4968C23.6856 19.7117 22.7636 19.7755 21.8502 19.6854C19.7802 19.6288 17.4486 19.5675 16.192 21.2885C14.9354 23.0096 15.7205 25.1856 16.4089 27.1188C16.7872 27.9692 17.0115 28.88 17.0714 29.8088C16.4893 30.4762 15.802 31.044 15.0368 31.4897C13.3111 32.6685 11.3519 34.01 11.3519 36.1884C11.3519 38.3668 13.3111 39.7035 15.0368 40.887C15.8018 41.3321 16.4891 41.8991 17.0714 42.5656C17.0178 43.494 16.7999 44.4056 16.4278 45.2579C15.7441 47.1911 14.9708 49.3837 16.2132 51.0882C17.4557 52.7927 19.7991 52.7385 21.8714 52.6913C22.7837 52.5975 23.7053 52.6597 24.5967 52.8752C25.0692 53.6481 25.4071 54.4955 25.5964 55.3813C26.181 57.3735 26.8482 59.625 28.8969 60.2992C29.2254 60.4045 29.5681 60.4586 29.9131 60.4595C31.5709 60.2216 33.1118 59.4677 34.317 58.3047C35.0149 57.6674 35.8235 57.1632 36.7029 56.8171C37.5914 57.1604 38.409 57.6647 39.1146 58.3047C40.7296 59.5377 42.5591 60.9452 44.5371 60.2969C46.5811 59.632 47.2483 57.3735 47.8376 55.3837C48.0266 54.4985 48.3646 53.6519 48.8373 52.8799C49.7261 52.6636 50.6453 52.5998 51.5555 52.6913C53.6255 52.7409 55.9571 52.8092 57.2137 51.0882C58.4703 49.3672 57.6852 47.1911 56.9968 45.2556C56.6211 44.4059 56.3969 43.4972 56.3343 42.5703C56.9168 41.9023 57.6049 41.3345 58.3713 40.8894C60.097 39.7106 62.0561 38.3668 62.0561 36.1884C62.0561 34.01 60.0899 32.6709 58.3618 31.4897Z" fill="#49ADF4"/>
<path d="M34.3452 42.6718C34.113 42.6722 33.883 42.6266 33.6685 42.5376C33.454 42.4486 33.2593 42.3179 33.0957 42.1531L28.3806 37.438C28.0682 37.1028 27.8982 36.6595 27.9063 36.2014C27.9144 35.7433 28.0999 35.3063 28.4239 34.9823C28.7479 34.6584 29.1849 34.4728 29.643 34.4647C30.1011 34.4566 30.5444 34.6267 30.8796 34.939L34.5102 38.5696L42.7146 32.4164C43.0897 32.135 43.5613 32.0142 44.0255 32.0805C44.4898 32.1468 44.9087 32.3949 45.19 32.77C45.4714 33.1452 45.5922 33.6167 45.5259 34.081C45.4596 34.5452 45.2115 34.9641 44.8364 35.2455L35.4061 42.3182C35.1 42.5476 34.7278 42.6716 34.3452 42.6718Z" fill="white"/>
</svg>
