<svg width="410" height="419" viewBox="0 0 410 419" fill="none" xmlns="http://www.w3.org/2000/svg">
<path fill-rule="evenodd" clip-rule="evenodd" d="M236.362 1.52588e-05C295.24 1.52588e-05 296.027 72.532 338.533 105.451C394.792 149.022 414.915 163.151 409.009 237.69C404.114 299.469 358.532 416.523 221.724 416.523C84.9167 416.523 -31.8178 343.716 8.91774 212.789C49.6532 81.8644 99.554 1.52588e-05 236.362 1.52588e-05Z" fill="#EDE4F1"/>
<path fill-rule="evenodd" clip-rule="evenodd" d="M66.576 359.834C61.206 354.466 57.8864 347.048 57.8864 338.857C57.8864 330.666 61.206 323.248 66.576 317.88C71.9446 312.511 79.3619 309.192 87.5533 309.192C95.7446 309.192 103.162 312.511 108.531 317.88C113.899 323.248 117.22 330.666 117.22 338.857C117.22 347.048 113.899 354.466 108.531 359.834C103.162 365.203 95.7446 368.524 87.5533 368.524C79.3619 368.524 71.9446 365.203 66.576 359.834ZM65.9911 338.857C65.9911 344.812 68.4047 350.204 72.3065 354.104C76.2083 358.006 81.5984 360.419 87.5535 360.419C93.507 360.419 98.8988 358.006 102.801 354.104C106.701 350.204 109.114 344.812 109.114 338.857C109.114 332.902 106.701 327.512 102.801 323.611C98.8988 319.71 93.507 317.296 87.5535 317.296C81.5986 317.296 76.2083 319.71 72.3065 323.611C68.4044 327.512 65.9911 332.902 65.9911 338.857Z" fill="white"/>
<path fill-rule="evenodd" clip-rule="evenodd" d="M31.2105 365.805C31.2105 370.642 27.2899 374.563 22.4532 374.563C17.6176 374.563 13.6971 370.642 13.6971 365.805C13.6971 360.97 17.6176 357.051 22.4532 357.051C27.2899 357.051 31.2105 360.97 31.2105 365.805Z" fill="white"/>
<path fill-rule="evenodd" clip-rule="evenodd" d="M31.1904 311.187C31.1904 316.023 27.2698 319.943 22.4345 319.943C17.5976 319.943 13.677 316.023 13.677 311.187C13.677 306.352 17.5976 302.431 22.4345 302.431C27.2698 302.431 31.1904 306.352 31.1904 311.187Z" fill="white"/>
<path d="M298.108 418.926C351.205 418.926 394.248 411.156 394.248 401.571C394.248 391.986 351.205 384.216 298.108 384.216C245.011 384.216 201.968 391.986 201.968 401.571C201.968 411.156 245.011 418.926 298.108 418.926Z" fill="#D1C6E2"/>
<path fill-rule="evenodd" clip-rule="evenodd" d="M56.6745 3.76628H202.502C216.093 3.76628 228.42 14.8665 229.924 28.4582L264.892 344.511C266.396 358.103 256.527 369.201 242.934 369.201H97.106C83.5145 369.201 71.1866 358.103 69.684 344.511L34.7146 28.4582C33.2103 14.8667 43.083 3.76628 56.6745 3.76628Z" fill="#2B2870"/>
<path fill-rule="evenodd" clip-rule="evenodd" d="M57.333 9.73149H203.162C213.461 9.73149 222.821 18.1575 223.959 28.4565L258.928 344.511C260.068 354.81 252.573 363.236 242.274 363.236H96.4461C86.1454 363.236 76.7872 354.81 75.6476 344.511L40.6798 28.4568C39.5401 18.1575 47.0337 9.73149 57.333 9.73149Z" fill="#F3EBF4"/>
<path fill-rule="evenodd" clip-rule="evenodd" d="M58.1831 17.4126H204.012C210.086 17.4126 215.605 22.3821 216.278 28.4566L251.247 344.511C251.918 350.585 247.498 355.555 241.423 355.555H95.5957C89.521 355.555 84.0011 350.585 83.3284 344.511L48.3609 28.4568C47.6879 22.3821 52.1084 17.4126 58.1831 17.4126Z" fill="#C2B5D9"/>
<path fill-rule="evenodd" clip-rule="evenodd" d="M90.2675 150.083L87.419 143.544C86.9623 142.563 86.1986 142.55 85.8903 143.544L84.4868 150.083H77.6139C76.575 150.11 76.4079 150.83 77.3056 151.538L83.3096 155.578L81.9105 162.114C81.726 163.115 82.3873 163.575 83.2477 163.013L88.3612 158.976L94.3693 163.017C95.2927 163.605 95.8706 163.166 95.5077 162.117L92.6618 155.579L97.7753 151.538C98.5303 150.902 98.2263 150.174 97.1399 150.083H90.2675V150.083Z" fill="#36013F"/>
<path fill-rule="evenodd" clip-rule="evenodd" d="M119.464 150.083L116.615 143.544C116.158 142.563 115.395 142.55 115.085 143.544L113.685 150.083H106.81C105.771 150.11 105.604 150.83 106.501 151.538L112.506 155.578L111.107 162.114C110.922 163.115 111.582 163.575 112.444 163.013L117.558 158.976L123.564 163.017C124.489 163.605 125.067 163.166 124.704 162.117L121.857 155.579L126.972 151.538C127.727 150.902 127.423 150.174 126.337 150.083H119.464V150.083Z" fill="#36013F"/>
<path fill-rule="evenodd" clip-rule="evenodd" d="M148.659 150.083L145.811 143.544C145.354 142.563 144.59 142.55 144.281 143.544L142.879 150.083H136.006C134.967 150.11 134.8 150.83 135.696 151.538L141.701 155.578L140.302 162.114C140.118 163.115 140.778 163.575 141.639 163.013L146.753 158.976L152.759 163.017C153.685 163.605 154.261 163.166 153.899 162.117L151.052 155.579L156.167 151.538C156.922 150.902 156.618 150.174 155.532 150.083H148.659V150.083Z" fill="#36013F"/>
<path fill-rule="evenodd" clip-rule="evenodd" d="M177.855 150.083L175.006 143.544C174.548 142.563 173.786 142.55 173.476 143.544L172.074 150.083H165.202C164.163 150.11 163.996 150.83 164.892 151.538L170.897 155.578L169.497 162.114C169.314 163.115 169.974 163.575 170.835 163.013L175.947 158.976L181.956 163.017C182.881 163.605 183.458 163.166 183.095 162.117L180.248 155.579L185.362 151.538C186.118 150.902 185.814 150.174 184.728 150.083H177.855V150.083Z" fill="#36013F"/>
<path fill-rule="evenodd" clip-rule="evenodd" d="M207.051 150.083L204.201 143.544C203.744 142.563 202.982 142.55 202.672 143.544L201.27 150.083H194.397C193.357 150.11 193.19 150.83 194.088 151.538L200.093 155.578L198.693 162.114C198.51 163.115 199.169 163.575 200.031 163.013L205.143 158.976L211.151 163.017C212.076 163.605 212.653 163.166 212.29 162.117L209.444 155.579L214.557 151.538C215.312 150.902 215.01 150.174 213.923 150.083H207.051V150.083Z" fill="white"/>
<path fill-rule="evenodd" clip-rule="evenodd" d="M135.091 53.4986C155.107 53.4986 173.133 69.7283 175.348 89.7457C177.562 109.763 163.128 125.992 143.11 125.992C123.093 125.992 105.069 109.763 102.853 89.7457C100.639 69.728 115.073 53.4986 135.091 53.4986Z" fill="#36013F"/>
<path fill-rule="evenodd" clip-rule="evenodd" d="M87.3356 184.165H154.536C157.62 184.165 160.422 186.688 160.762 189.772C161.104 192.857 158.86 195.378 155.777 195.378H88.5761C85.4925 195.378 82.6902 192.857 82.3487 189.772C82.0088 186.688 84.2507 184.165 87.3356 184.165Z" fill="#9588C0"/>
<path fill-rule="evenodd" clip-rule="evenodd" d="M89.9059 207.395H214.33C217.413 207.395 220.216 209.918 220.556 213.001L220.557 213.003C220.897 216.086 218.654 218.609 215.571 218.609H91.1467C88.0618 218.609 85.2608 216.086 84.9193 213.003V213.001C84.5792 209.918 86.821 207.395 89.9059 207.395Z" fill="#9588C0"/>
<path fill-rule="evenodd" clip-rule="evenodd" d="M92.4749 230.624H216.9C219.984 230.624 222.785 233.147 223.126 236.23V236.232C223.468 239.316 221.224 241.838 218.141 241.838H93.7154C90.6319 241.838 87.8309 239.316 87.4894 236.232V236.23C87.1484 233.147 89.3917 230.624 92.4749 230.624Z" fill="#9588C0"/>
<path fill-rule="evenodd" clip-rule="evenodd" d="M95.0455 253.853H219.471C222.554 253.853 225.355 256.376 225.697 259.46V259.461C226.038 262.545 223.795 265.068 220.711 265.068H96.286C93.2025 265.068 90.4018 262.545 90.06 259.461V259.46C89.7188 256.376 91.962 253.853 95.0455 253.853Z" fill="#9588C0"/>
<path fill-rule="evenodd" clip-rule="evenodd" d="M125.125 292.835H198.018C200.001 292.835 201.8 294.456 202.019 296.439L204.354 317.534C204.573 319.517 203.132 321.138 201.149 321.138H128.256C126.273 321.138 124.474 319.517 124.253 317.534L121.92 296.439C121.7 294.456 123.142 292.835 125.125 292.835Z" fill="#9588C0"/>
<path fill-rule="evenodd" clip-rule="evenodd" d="M146.636 94.1893C142.053 96.5219 137.212 96.548 132.115 94.27C125.253 95.2527 121.485 101.53 120.969 108.825L120.75 111.93C126.752 117.161 134.487 120.378 142.618 120.378C150.734 120.378 157.745 117.171 162.591 111.956L161.709 108.825C159.581 101.275 154.086 94.8392 146.636 94.1893Z" fill="white"/>
<path fill-rule="evenodd" clip-rule="evenodd" d="M136.706 94.1361C138.656 94.4632 140.661 94.4632 142.722 94.1361C147.172 92.8293 150.069 88.6004 149.514 83.5877C148.844 77.5304 143.39 72.6198 137.333 72.6198C131.276 72.6198 126.908 77.5304 127.58 83.5877C128.134 88.6004 131.966 92.8293 136.706 94.1361Z" fill="white"/>
<path fill-rule="evenodd" clip-rule="evenodd" d="M339.098 84.5617C337.039 84.7086 335.055 82.2665 334.482 81.5374C332.293 78.7581 330.896 75.4944 330.333 73.6647C330.761 72.4487 331.208 70.9113 331.675 69.0554C339.607 63.6681 340.69 59.6812 334.926 57.0978C333.764 57.7491 332.325 59.7535 330.602 63.1163C329.227 63.0617 328.184 62.357 327.475 61.007C329.113 55.3344 330.176 50.7295 330.672 47.1879C326.765 41.38 317.624 40.5514 305.521 42.1189C304.96 45.3391 304.499 48.7511 304.139 52.3533C301.999 54.3243 302.276 61.6338 304.248 70.0568C303.263 74.8449 306.22 77.46 313.12 77.8963C313.187 79.0534 313.081 80.3833 313.06 81.1945C313.042 81.9277 313.016 83.3628 312.248 83.5877L310.97 83.9047C311.097 101.029 319.864 104.32 339.098 84.5617Z" fill="#FAB688"/>
<path fill-rule="evenodd" clip-rule="evenodd" d="M305.521 42.1186C317.622 40.5497 326.764 41.3794 330.672 47.1876C330.176 50.7278 329.113 55.3357 327.475 61.0067C328.183 62.3567 329.225 63.06 330.601 63.116C332.323 59.7545 333.765 57.7504 334.927 57.0975C340.69 59.6809 339.605 63.6678 331.675 69.0551C331.208 70.9123 330.761 72.4484 330.333 73.6644C337.47 72.065 343.437 65.6836 344.279 62.9228C352.603 46.5173 343.319 39.5882 338.353 37.0624C336.16 20.8156 312.477 34.8621 306.247 24.9465C293.211 32.3828 301.858 41.9733 305.521 42.1186Z" fill="#071023"/>
<path fill-rule="evenodd" clip-rule="evenodd" d="M321.072 76.2292C319.138 77.1845 316.487 77.7406 313.118 77.8963C313.186 79.0376 313.136 80.35 313.064 81.1626C316.449 80.5098 319.12 78.8659 321.072 76.2292Z" fill="#ED7D57"/>
<path fill-rule="evenodd" clip-rule="evenodd" d="M353.528 405.28C361.045 402.633 361.649 398.76 365.7 396.87C369.779 394.964 370.248 391.57 366.26 387.886C363.313 390.241 359.659 393.132 357.723 391.601C356.43 390.576 352.046 390.646 351.177 392.137C347.358 401.012 342.047 398.2 341 402.239C340.878 407.617 350.079 406.496 353.528 405.28Z" fill="#071023"/>
<path fill-rule="evenodd" clip-rule="evenodd" d="M288.395 396.452C301.633 396.239 311.527 396.08 316.1 394.637C321.031 393.079 320.011 390.072 317.179 385.259C304.701 390.998 308.026 384.079 302.19 384.958C298.089 388.259 292.015 390.473 283.973 391.596C280.571 394.105 281.953 396.341 288.395 396.452Z" fill="#071023"/>
<path fill-rule="evenodd" clip-rule="evenodd" d="M295.005 86.4995C301.613 84.5817 307.546 83.4206 312.806 83.0112C313.756 97.529 321.329 97.4283 335.526 82.7085C349.197 83.8555 351.872 84.0313 359.46 86.4922C375.871 102.17 377.381 120.265 385.96 140.94C376.462 141.365 372.199 142.509 365.742 144.811C364.355 139.856 363.195 135.868 362.26 132.847C362.522 160.112 362.623 178.792 362.561 188.89C331.148 201.337 305.271 197.077 294.703 187.377C294.556 163.142 294.354 143.955 294.098 129.819C290.34 134.247 286.858 137.681 283.646 140.118C275.944 131.289 270.726 127.733 266.359 122.527C276.027 106.653 289.88 91.8812 295.005 86.4995Z" fill="#F4D35E"/>
<path fill-rule="evenodd" clip-rule="evenodd" d="M231.698 113.059C248.2 119.914 259.754 125.579 266.36 130.055L269.295 125.711C272.024 128.445 275.141 131.127 278.942 135.02C275.427 138.697 271.655 141.723 267.262 144.277C255.796 143.054 243.121 134.369 229.238 118.227C224.923 117.365 219.808 116.404 217.771 114.136C216.298 111.005 217.708 101.088 221.735 102.049C224.544 103.421 230.237 109.413 231.698 113.059Z" fill="#FAB688"/>
<path fill-rule="evenodd" clip-rule="evenodd" d="M294.702 187.379C295.323 189.736 292.754 203.581 292.329 210.803C288.152 236.582 291.731 270.138 293.978 313.288C298.003 328.493 303.942 348.757 303.555 377.276C310.562 379.418 313.101 379.64 319.428 378.031C323.85 348.267 320.833 324.433 316.837 313.425C319.395 296.41 323.216 277.365 328.776 249.895C335.042 279.83 343.423 302.046 347.053 316.541C347.771 332.703 351.041 354.516 352.749 381.977C357.953 383.544 361.192 383.997 366.589 383.338C373.595 358.096 372.419 330.628 369.451 300.937C366.292 265.243 371.5 224.938 366.287 210.964C363.62 202.684 363.277 195.334 362.561 188.891C336.352 197.614 313.734 197.11 294.702 187.379Z" fill="#F4D35E"/>
<path fill-rule="evenodd" clip-rule="evenodd" d="M357.73 161.194C359.412 161.445 361.003 161.665 362.5 161.867C362.578 173.893 362.598 182.903 362.563 188.892C361.078 189.556 358.991 190.321 357.364 190.514C357.374 189.743 357.614 187.958 357.623 187.198C357.727 178 357.763 169.335 357.73 161.194ZM280.924 137.099C285.549 133.246 289.952 126.99 294.132 118.333C293.663 121.349 293.474 125.386 293.569 130.439C290.013 134.569 286.706 137.795 283.644 140.119C282.704 139.038 281.797 138.035 280.924 137.099ZM356.422 113.649C358.457 120.206 360.407 126.605 362.261 132.846C362.312 138.115 362.356 143.064 362.395 147.692C361.048 147.565 359.471 147.48 357.6 147.434C357.407 134.637 357.014 123.374 356.422 113.649Z" fill="#F4D35E"/>
<path fill-rule="evenodd" clip-rule="evenodd" d="M314.957 123.081H280.376C278.789 123.081 277.698 124.378 277.949 125.963L285.709 174.956C285.961 176.541 287.463 177.837 289.049 177.837H323.631C325.216 177.837 326.308 176.541 326.056 174.956L318.295 125.963C318.045 124.378 316.542 123.081 314.957 123.081Z" fill="#36013F"/>
<path fill-rule="evenodd" clip-rule="evenodd" d="M287.683 166.528L288.932 174.413C288.954 174.469 289.052 174.557 289.049 174.568H322.684L315.074 126.504C315.05 126.45 314.953 126.362 314.957 126.35H311.427C311.784 128.631 311.973 131 311.973 133.429C311.973 151.715 301.335 166.538 288.21 166.538C288.033 166.538 287.859 166.534 287.683 166.528Z" fill="#38308D"/>
<path fill-rule="evenodd" clip-rule="evenodd" d="M382.773 141.125C384.268 147.189 384.891 152.738 383.668 160.095C379.935 165.515 364.872 162.485 326.092 156.004C324.701 157.273 321.825 158.536 317.46 157.973C313.402 156.96 313.209 155.901 308.658 151.611C307.554 148.273 307.782 145.723 309.339 143.962C314.461 146.977 317.157 148.581 322.926 148.771C321.392 144.819 321.16 142.267 322.233 141.118C324.203 142.697 325.485 145.068 326.077 148.237C356.654 146.908 364.716 147.086 368.787 149.221C368.344 147.3 367.955 145.616 367.612 144.158C372.371 142.537 376.246 141.596 382.773 141.125Z" fill="#FAB688"/>
<path fill-rule="evenodd" clip-rule="evenodd" d="M316.297 378.728C315.985 381.325 315.941 383.653 316.163 385.713C305.724 390.251 307.497 385.013 303.325 384.882C304.374 383.037 305.052 380.682 305.364 377.813C309.915 379.117 312.504 379.41 316.297 378.728ZM364.942 383.51C364.939 385.398 365.124 387.059 365.494 388.494C362.705 390.7 359.495 393.003 357.723 391.601C356.872 390.928 354.69 390.726 353.045 391.091C353.723 388.81 354.256 385.953 354.647 382.52C358.306 383.506 361.119 383.836 364.942 383.51Z" fill="#FAB688"/>
<path fill-rule="evenodd" clip-rule="evenodd" d="M292.329 210.803C310.761 227.987 335.413 228.042 366.287 210.965C371.5 224.939 366.293 265.243 369.451 300.937C372.419 330.629 373.595 358.097 366.59 383.339C366.018 383.408 365.471 383.466 364.943 383.511C361.119 383.836 358.306 383.506 354.648 382.521C354.04 382.358 353.411 382.176 352.749 381.977C351.041 354.516 347.771 332.704 347.053 316.542C343.423 302.047 335.042 279.831 328.776 249.896C323.216 277.365 319.395 296.41 316.837 313.425C320.833 324.434 323.85 348.268 319.428 378.031C318.275 378.325 317.248 378.557 316.297 378.728C312.503 379.41 309.916 379.118 305.364 377.814C304.793 377.65 304.194 377.471 303.556 377.276C303.942 348.758 298.003 328.494 293.979 313.289C291.731 270.138 288.152 236.582 292.329 210.803Z" fill="#1B2452"/>
<path fill-rule="evenodd" clip-rule="evenodd" d="M321.422 357.581C314.695 359.408 308.538 359.96 302.949 359.233C302.828 357.758 302.691 356.307 302.541 354.885C308.671 355.682 315.011 355.271 321.559 353.653C321.527 354.941 321.482 356.252 321.422 357.581ZM370.566 362.7C363.252 363.576 356.773 363.092 351.131 361.249C350.991 359.712 350.847 358.198 350.703 356.706C357.034 358.772 363.79 359.478 370.974 358.826C370.853 360.123 370.716 361.414 370.566 362.7ZM352.076 372.363C351.959 370.841 351.837 369.338 351.713 367.854C357.359 369.4 363.334 369.896 369.638 369.341C369.425 370.652 369.194 371.955 368.945 373.254C362.708 373.955 357.086 373.658 352.076 372.363ZM303.275 363.953C308.976 364.896 314.901 364.793 321.05 363.644C320.951 364.947 320.837 366.265 320.707 367.598C314.421 368.928 308.675 369.164 303.469 368.309C303.42 366.833 303.355 365.382 303.275 363.953Z" fill="#9588C0"/>
<path fill-rule="evenodd" clip-rule="evenodd" d="M217.072 93.6794L213.042 87.3067C212.405 86.3585 211.592 86.5501 211.417 87.7215L210.93 95.2456L203.624 97.1085C202.525 97.4198 202.457 98.2525 203.519 98.7828L210.522 101.569L210.036 109.091C209.996 110.235 210.766 110.559 211.597 109.712L216.41 103.914L223.416 106.701C224.488 107.094 225.034 106.457 224.488 105.408L220.459 99.0369L225.274 93.2344C225.979 92.3351 225.545 91.622 224.377 91.8165L217.072 93.6794Z" fill="#36013F"/>
<path fill-rule="evenodd" clip-rule="evenodd" d="M224.638 108.532C225.59 107.529 225.731 106.197 225.063 104.536C222.975 103.196 221.366 102.159 220.232 101.422C219.772 104.251 221.24 106.621 224.638 108.532Z" fill="#FAB688"/>
<path fill-rule="evenodd" clip-rule="evenodd" d="M239.451 20.705C261.418 20.705 279.225 32.3456 279.225 46.7051C279.225 54.4481 274.047 61.3987 265.831 66.1623C269.909 69.6131 275.344 72.4386 282.139 74.6386C269.61 75.8677 259.245 74.8475 251.038 71.5841C247.371 72.3133 243.481 72.7051 239.451 72.7051C217.482 72.7051 199.675 61.0645 199.675 46.7051C199.675 32.3456 217.482 20.705 239.451 20.705Z" fill="#9588C0"/>
<path fill-rule="evenodd" clip-rule="evenodd" d="M263.242 41.907C260.749 41.907 258.73 43.9283 258.73 46.4212C258.73 48.9138 260.75 50.934 263.242 50.934C265.734 50.934 267.756 48.9141 267.756 46.4212C267.757 43.9283 265.735 41.907 263.242 41.907ZM214.886 41.907C212.393 41.907 210.374 43.9283 210.374 46.4212C210.374 48.9138 212.394 50.934 214.886 50.934C217.378 50.934 219.399 48.9141 219.399 46.4212C219.399 43.9283 217.379 41.907 214.886 41.907ZM231.005 41.907C228.512 41.907 226.491 43.9283 226.491 46.4212C226.491 48.9138 228.512 50.934 231.005 50.934C233.498 50.934 235.518 48.9141 235.518 46.4212C235.518 43.9283 233.498 41.907 231.005 41.907ZM247.124 41.907C244.631 41.907 242.611 43.9283 242.611 46.4212C242.611 48.9138 244.631 50.934 247.124 50.934C249.616 50.934 251.637 48.9141 251.637 46.4212C251.638 43.9283 249.616 41.907 247.124 41.907Z" fill="#EDE4F1"/>
</svg>
