<svg width="143" height="72" viewBox="0 0 143 72" fill="none" xmlns="http://www.w3.org/2000/svg">
<path d="M0 70.8363V62.5416H0.948438V65.9609H4.03684V62.5416H4.98525V70.8363H4.03684V66.7994H0.948438V70.8363H0ZM7.11804 66.6887C7.11804 68.0218 7.24487 68.9426 7.49868 69.4539C7.75209 69.9632 8.19158 70.2184 8.8165 70.2184C9.44916 70.2184 9.89014 69.9706 10.1401 69.4723C10.3901 68.9743 10.5153 68.0475 10.5153 66.6887C10.5153 65.3342 10.3901 64.4094 10.1401 63.9132C9.89014 63.4183 9.44916 63.1707 8.8165 63.1707C8.19158 63.1707 7.75209 63.4241 7.49868 63.9333C7.24487 64.4409 7.11804 65.3599 7.11804 66.6887ZM6.1583 66.6887C6.1583 65.1448 6.36797 64.0346 6.78526 63.3578C7.20256 62.6816 7.88079 62.3433 8.8165 62.3433C9.75974 62.3433 10.4397 62.6781 10.8535 63.3468C11.2668 64.0181 11.4747 65.1298 11.4747 66.6887C11.4747 68.2482 11.2691 69.3602 10.8553 70.0312C10.4435 70.7002 9.7632 71.0347 8.8165 71.0347C7.88456 71.0347 7.20806 70.6929 6.787 70.0107C6.36797 69.3287 6.1583 68.2219 6.1583 66.6887ZM12.6478 70.8363V62.5416H13.5743V69.9429H16.8833V70.8363H12.6478ZM17.7586 70.8363V62.5416H18.707V70.8363H17.7586ZM20.9738 70.0422H22.174C22.5621 70.0422 22.8617 70.0032 23.0766 69.9245C23.29 69.8451 23.4576 69.7171 23.5786 69.5421C23.7733 69.2586 23.9132 68.9045 23.9996 68.4814C24.0861 68.0584 24.1282 67.4647 24.1282 66.7003C24.1282 65.3616 23.9887 64.4683 23.7092 64.0202C23.4281 63.5712 22.9059 63.3468 22.1412 63.3468H20.9738V70.0422ZM20.0473 70.8363V62.5416H22.3949C23.3359 62.5416 24.0291 62.856 24.4758 63.485C24.9207 64.1136 25.143 65.0897 25.143 66.415C25.143 67.3474 25.0658 68.1172 24.9132 68.7225C24.7607 69.327 24.5216 69.8068 24.1946 70.1635C23.972 70.4078 23.7202 70.5805 23.4408 70.684C23.1597 70.7847 22.7441 70.8363 22.1907 70.8363H20.0473ZM27.5037 67.6045H29.7114L28.6083 63.2585L27.5037 67.6045ZM25.7535 70.8363L28.0146 62.5416H29.1949L31.4891 70.8363H30.5514L29.9228 68.4429H27.294L26.691 70.8363H25.7535ZM33.1492 70.8363V67.6265L30.7005 62.5416H31.8034L33.6346 66.625L35.5499 62.5416H36.5572L34.0868 67.6265V70.8363H33.1492ZM36.8259 68.2001H37.7084V68.4962C37.7084 69.0625 37.839 69.4888 38.098 69.7753C38.3589 70.064 38.7451 70.2077 39.2543 70.2077C39.7136 70.2077 40.0742 70.0695 40.3372 69.7921C40.5998 69.5161 40.7308 69.134 40.7308 68.6488C40.7308 68.2609 40.6515 67.9627 40.4917 67.7516C40.3313 67.5419 39.9695 67.3306 39.4089 67.1193C39.2762 67.0676 39.0908 66.9975 38.8498 66.9093C38.1772 66.665 37.7709 66.4813 37.6311 66.3597C37.4012 66.1541 37.2305 65.9116 37.1164 65.6301C37.0042 65.349 36.9471 65.0199 36.9471 64.6464C36.9471 63.9259 37.1458 63.3615 37.5446 62.9535C37.9433 62.5472 38.4988 62.3433 39.2102 62.3433C39.8849 62.3433 40.4143 62.5325 40.7964 62.9096C41.1791 63.2862 41.3703 63.8065 41.3703 64.4718C41.3703 64.4919 41.3686 64.5274 41.3646 64.5768C41.3611 64.6246 41.3594 64.6595 41.3594 64.6817H40.5099V64.5955C40.5099 64.1285 40.3959 63.7699 40.1679 63.5158C39.9383 63.2641 39.6165 63.1375 39.1992 63.1375C38.7672 63.1375 38.427 63.2585 38.1789 63.5014C37.9307 63.7422 37.8075 64.0694 37.8075 64.4827C37.8075 64.8729 37.8921 65.1763 38.0613 65.3911C38.2303 65.6062 38.598 65.8179 39.166 66.0272C39.2358 66.0514 39.335 66.0898 39.4694 66.1396C40.3354 66.4594 40.8519 66.6982 41.0212 66.8565C41.225 67.0457 41.3775 67.2773 41.475 67.5512C41.5742 67.8232 41.6238 68.1504 41.6238 68.5308C41.6238 69.316 41.4073 69.928 40.9733 70.3677C40.5376 70.8049 39.9326 71.0241 39.1569 71.0241C38.3848 71.0241 37.802 70.8083 37.4067 70.377C37.0117 69.9467 36.815 69.3126 36.815 68.476C36.815 68.4463 36.8167 68.4004 36.8201 68.3382C36.8242 68.2756 36.8259 68.2295 36.8259 68.2001Z" fill="#E95322"/>
<path d="M54.1322 69.9019C54.0278 70.1827 53.9018 70.3825 53.7551 70.5023C53.6071 70.6214 53.4104 70.6802 53.1662 70.6802C53.1071 70.6802 53.0563 70.6776 53.0099 70.6719C52.965 70.6664 52.9199 70.6557 52.8746 70.643V70.2649C52.9522 70.275 53.0122 70.2846 53.0563 70.2906C53.1002 70.2957 53.135 70.2984 53.1593 70.2984C53.3106 70.2984 53.4301 70.2588 53.5168 70.1804C53.6048 70.1002 53.6948 69.9385 53.7877 69.6934L53.954 69.2458L52.5497 65.5994H52.9964L54.1588 68.6754L55.2993 65.5994H55.7286L54.1322 69.9019ZM56.498 67.4055C56.498 67.889 56.6044 68.2648 56.8184 68.531C57.0312 68.7983 57.3319 68.931 57.7184 68.931C58.1079 68.931 58.4098 68.7991 58.6227 68.5344C58.8344 68.2703 58.9408 67.8934 58.9408 67.4055C58.9408 66.9184 58.8344 66.5409 58.6227 66.2751C58.4098 66.0101 58.1079 65.8774 57.7184 65.8774C57.3319 65.8774 57.0312 66.0101 56.8184 66.2771C56.6044 66.5433 56.498 66.9189 56.498 67.4055ZM56.0675 67.4055C56.0675 66.8021 56.212 66.3362 56.5001 66.0054C56.7884 65.6747 57.1942 65.5095 57.7184 65.5095C58.2443 65.5095 58.653 65.6747 58.9433 66.0054C59.2337 66.3362 59.3785 66.8021 59.3785 67.4055C59.3785 68.0041 59.2337 68.4681 58.9445 68.7983C58.6553 69.1276 58.247 69.292 57.7184 69.292C57.1942 69.292 56.7884 69.1276 56.5001 68.7991C56.212 68.4711 56.0675 68.0067 56.0675 67.4055ZM62.9402 65.5994V69.2015H62.5373V68.6259C62.3998 68.8537 62.2322 69.0223 62.0341 69.1334C61.8365 69.2433 61.6015 69.2986 61.3307 69.2986C60.9247 69.2986 60.6196 69.1922 60.4149 68.9786C60.2101 68.7658 60.1081 68.4462 60.1081 68.0226V65.5994H60.5248V67.9248C60.5248 68.2829 60.5929 68.5388 60.7284 68.6905C60.8636 68.8418 61.0891 68.9174 61.406 68.9174C61.7509 68.9174 62.0237 68.8118 62.2241 68.6004C62.424 68.3894 62.5237 68.0993 62.5237 67.7314V65.5994H62.9402ZM63.877 69.2015V65.5994H64.2808V66.2312C64.3837 65.989 64.5282 65.8087 64.7122 65.6885C64.8961 65.5692 65.1228 65.5095 65.3912 65.5095H65.4385V65.9463H65.3843C65.0256 65.9463 64.7563 66.0527 64.5769 66.2647C64.3976 66.4777 64.3073 66.7944 64.3073 67.2169V69.2015H63.877ZM68.5238 69.2015L67.3914 65.5994H67.8138L68.7439 68.6048L69.5686 65.5994H70.0357L70.8503 68.6048L71.7722 65.5994H72.1944L71.0617 69.2015H70.619L69.7883 66.1895L68.9612 69.2015H68.5238ZM72.9081 67.4055C72.9081 67.889 73.0146 68.2648 73.2285 68.531C73.4413 68.7983 73.7423 68.931 74.1285 68.931C74.5186 68.931 74.8202 68.7991 75.0331 68.5344C75.2451 68.2703 75.3515 67.8934 75.3515 67.4055C75.3515 66.9184 75.2451 66.5409 75.0331 66.2751C74.8202 66.0101 74.5186 65.8774 74.1285 65.8774C73.7423 65.8774 73.4413 66.0101 73.2285 66.2771C73.0146 66.5433 72.9081 66.9189 72.9081 67.4055ZM72.4779 67.4055C72.4779 66.8021 72.6227 66.3362 72.9107 66.0054C73.1985 65.6747 73.6046 65.5095 74.1285 65.5095C74.6551 65.5095 75.0634 65.6747 75.3537 66.0054C75.6439 66.3362 75.7886 66.8021 75.7886 67.4055C75.7886 68.0041 75.6439 68.4681 75.3546 68.7983C75.0654 69.1276 74.6574 69.292 74.1285 69.292C73.6046 69.292 73.1985 69.1276 72.9107 68.7991C72.6227 68.4711 72.4779 68.0067 72.4779 67.4055ZM76.5324 69.2015V65.5994H76.9363V66.2312C77.039 65.989 77.1837 65.8087 77.3675 65.6885C77.5514 65.5692 77.7783 65.5095 78.0468 65.5095H78.0938V65.9463H78.0399C77.6812 65.9463 77.4116 66.0527 77.2322 66.2647C77.0531 66.4777 76.9629 66.7944 76.9629 67.2169V69.2015H76.5324ZM78.706 69.2015V64.2112H79.1224V69.2015H78.706ZM80.3647 67.4055C80.3647 67.889 80.4711 68.2648 80.6851 68.531C80.8982 68.7983 81.1956 68.931 81.5774 68.931C81.9703 68.931 82.2723 68.7991 82.484 68.5362C82.6948 68.2726 82.8 67.8956 82.8 67.4055C82.8 66.9184 82.6947 66.5409 82.4819 66.2751C82.27 66.0101 81.9684 65.8774 81.5774 65.8774C81.1883 65.8774 80.8902 66.0089 80.6797 66.2714C80.4703 66.5354 80.3647 66.9135 80.3647 67.4055ZM83.1829 64.2112V69.2015H82.7666V68.5918C82.6287 68.8271 82.4528 69.003 82.24 69.1221C82.0261 69.2401 81.7784 69.2986 81.4963 69.2986C81.0104 69.2986 80.6263 69.1299 80.344 68.7914C80.062 68.4519 79.9207 67.9902 79.9207 67.4055C79.9207 66.8213 80.064 66.3581 80.352 66.0193C80.6404 65.6793 81.0311 65.5095 81.5228 65.5095C81.8051 65.5095 82.0517 65.5692 82.2596 65.6885C82.4692 65.8076 82.638 65.9859 82.7666 66.2229V64.2112H83.1829ZM84.356 70.1666V69.9028C84.4333 69.8486 84.4889 69.786 84.5213 69.7164C84.5548 69.6458 84.5712 69.5556 84.5712 69.4457V69.2015H84.356V68.584H84.814V69.4146C84.814 69.6204 84.7794 69.7802 84.7087 69.8935C84.6381 70.0083 84.5213 70.0982 84.356 70.1666ZM88.0717 67.4055C88.0717 67.889 88.1781 68.2648 88.392 68.531C88.6048 68.7983 88.9057 68.931 89.292 68.931C89.6816 68.931 89.9838 68.7991 90.1966 68.5344C90.4083 68.2703 90.5147 67.8934 90.5147 67.4055C90.5147 66.9184 90.4083 66.5409 90.1966 66.2751C89.9838 66.0101 89.6816 65.8774 89.292 65.8774C88.9057 65.8774 88.6048 66.0101 88.392 66.2771C88.1781 66.5433 88.0717 66.9189 88.0717 67.4055ZM87.6415 67.4055C87.6415 66.8021 87.7856 66.3362 88.0737 66.0054C88.362 65.6747 88.7681 65.5095 89.292 65.5095C89.8183 65.5095 90.2266 65.6747 90.5171 66.0054C90.8074 66.3362 90.9521 66.8021 90.9521 67.4055C90.9521 68.0041 90.8074 68.4681 90.5182 68.7983C90.229 69.1276 89.8206 69.292 89.292 69.292C88.7681 69.292 88.362 69.1276 88.0737 68.7991C87.7856 68.4711 87.6415 68.0067 87.6415 67.4055ZM94.5138 65.5994V69.2015H94.111V68.6259C93.9734 68.8537 93.8059 69.0223 93.6077 69.1334C93.4103 69.2433 93.1754 69.2986 92.9047 69.2986C92.4986 69.2986 92.1932 69.1922 91.9886 68.9786C91.7838 68.7658 91.6818 68.4462 91.6818 68.0226V65.5994H92.0984V67.9248C92.0984 68.2829 92.1665 68.5388 92.302 68.6905C92.4373 68.8418 92.663 68.9174 92.9797 68.9174C93.3246 68.9174 93.5976 68.8118 93.7977 68.6004C93.9979 68.3894 94.0974 68.0993 94.0974 67.7314V65.5994H94.5138ZM95.4508 69.2015V65.5994H95.8547V66.2312C95.9574 65.989 96.1021 65.8087 96.2858 65.6885C96.4697 65.5692 96.6967 65.5095 96.9649 65.5095H97.0121V65.9463H96.9583C96.5996 65.9463 96.3299 66.0527 96.1505 66.2647C95.9715 66.4777 95.8809 66.7944 95.8809 67.2169V69.2015H95.4508ZM100.097 69.2015L98.965 65.5994H99.3874L100.317 68.6048L101.142 65.5994H101.61L102.424 68.6048L103.346 65.5994H103.768L102.636 69.2015H102.193L101.362 66.1895L100.535 69.2015H100.097ZM106.55 67.3137C106.439 67.3541 106.298 67.387 106.125 67.4125C105.952 67.4364 105.674 67.4595 105.29 67.4805C105.022 67.5497 104.821 67.6495 104.686 67.7777C104.55 67.9069 104.482 68.0621 104.482 68.2429C104.482 68.4485 104.555 68.6117 104.701 68.7343C104.846 68.8557 105.045 68.9174 105.296 68.9174C105.678 68.9174 105.983 68.8188 106.209 68.6207C106.437 68.4231 106.55 68.1535 106.55 67.8123V67.3137ZM106.577 68.6787C106.387 68.8851 106.182 69.0388 105.96 69.1391C105.74 69.2409 105.5 69.292 105.246 69.292C104.881 69.292 104.591 69.1974 104.376 69.0071C104.159 68.818 104.052 68.5644 104.052 68.2486C104.052 68.0439 104.101 67.8642 104.199 67.7108C104.298 67.558 104.44 67.4363 104.628 67.3475C104.843 67.2506 105.202 67.1831 105.702 67.1451C105.8 67.1402 105.873 67.1344 105.923 67.1301C105.953 67.1238 105.992 67.1162 106.041 67.107C106.385 67.0358 106.557 66.8873 106.557 66.66C106.557 66.3792 106.488 66.1794 106.349 66.0588C106.209 65.9371 105.981 65.8774 105.662 65.8774C105.339 65.8774 105.092 65.944 104.919 66.0784C104.748 66.2122 104.656 66.413 104.642 66.6762L104.232 66.6728C104.242 66.3146 104.373 66.0306 104.629 65.8226C104.884 65.6133 105.228 65.5095 105.662 65.5095C106.093 65.5095 106.422 65.6021 106.645 65.7866C106.868 65.9718 106.981 66.2425 106.981 66.5986V68.5644C106.981 68.7138 106.999 68.8058 107.035 68.8419C107.071 68.8779 107.139 68.8964 107.237 68.8964C107.27 68.8964 107.297 68.8964 107.32 68.8954C107.341 68.8937 107.366 68.8917 107.39 68.8892V69.2015C107.338 69.2133 107.286 69.221 107.234 69.2271C107.182 69.2329 107.134 69.2367 107.092 69.2367C106.921 69.2367 106.792 69.1949 106.707 69.1103C106.621 69.027 106.577 68.9019 106.577 68.7369V68.6787ZM109.071 69.9019C108.967 70.1827 108.841 70.3825 108.694 70.5023C108.546 70.6214 108.349 70.6802 108.105 70.6802C108.046 70.6802 107.995 70.6776 107.949 70.6719C107.904 70.6664 107.859 70.6557 107.814 70.643V70.2649C107.891 70.275 107.951 70.2846 107.995 70.2906C108.039 70.2957 108.074 70.2984 108.098 70.2984C108.25 70.2984 108.369 70.2588 108.455 70.1804C108.543 70.1002 108.634 69.9385 108.726 69.6934L108.893 69.2458L107.488 65.5994H107.935L109.098 68.6754L110.238 65.5994H110.667L109.071 69.9019ZM110.877 69.2015V68.584H111.335V69.2015H110.877ZM112.724 69.2015V68.584H113.182V69.2015H112.724ZM114.572 69.2015V68.584H115.03V69.2015H114.572Z" fill="#727271"/>
<path d="M2.94067 45.7837H9.73407C12.8695 45.7837 15.1144 45.367 16.4835 44.5402C17.8452 43.7068 18.5295 42.3602 18.5295 40.4954C18.5295 38.7265 17.9187 37.428 16.697 36.5951C15.4751 35.7681 13.569 35.3514 10.9853 35.3514H2.94067V45.7837ZM0.0258179 59.2583V33.2141H11.1104C14.5771 33.2141 17.1825 33.8239 18.9197 35.0493C20.664 36.2751 21.5329 38.1045 21.5329 40.5314C21.5329 43.0428 20.5608 44.9085 18.6106 46.1274C16.66 47.347 13.6867 47.9571 9.68992 47.9571H2.94067V59.2583H0.0258179ZM27.7007 59.2583V33.2141H30.7035V57.1208H46.9113V59.2583H27.7007ZM55.5669 49.1525H67.8582L61.6907 35.7196L55.5669 49.1525ZM47.9119 59.2583L59.9682 33.2141H63.4644L75.5133 59.2583H72.4439L68.8301 51.2535H54.5951L50.9371 59.2583H47.9119ZM79.8777 59.2583V33.2141H83.0942L101.032 55.5395V33.2141H103.858V59.2583H100.627L82.7484 36.9331V59.2583H79.8777ZM112.153 59.2583V33.2141H115.156V59.2583H112.153ZM130.149 59.2583V35.3514H120.301V33.2141H143V35.3514H133.152V59.2583H130.149Z" fill="white"/>
<path fill-rule="evenodd" clip-rule="evenodd" d="M113.731 29.8891C115.45 29.8891 116.844 30.112 116.844 30.3867C116.844 30.6618 115.45 30.8848 113.731 30.8848C112.012 30.8848 110.618 30.6618 110.618 30.3867C110.618 30.112 112.012 29.8891 113.731 29.8891Z" fill="#C5C6C6"/>
<path fill-rule="evenodd" clip-rule="evenodd" d="M132.937 13.6429L127.252 16.2471L127.358 11.1459L132.937 13.6429ZM93.7185 13.6429L99.404 16.2471L99.2976 11.1459L93.7185 13.6429Z" fill="#C5C6C6"/>
<path fill-rule="evenodd" clip-rule="evenodd" d="M123.288 5.72686C113.081 -1.06106 104.075 6.48383 109.689 17.1211C105.738 14.6166 103.401 11.6341 103.2 8.27178C104.717 3.45803 108.891 -9.53674e-05 113.804 -9.53674e-05C117.786 -9.53674e-05 121.283 2.2713 123.272 5.69451L123.288 5.72686Z" fill="white"/>
<path fill-rule="evenodd" clip-rule="evenodd" d="M117.522 16.5503C109.939 18.6196 105.193 14.2114 104.28 5.79335C103.209 7.67433 102.59 9.89565 102.59 12.2755C102.59 12.8398 102.625 13.3956 102.692 13.9397C104.485 19.8187 110.901 23.0262 117.522 16.5503Z" fill="black"/>
<path fill-rule="evenodd" clip-rule="evenodd" d="M117.536 16.5496C110.077 18.7433 104.548 14.5856 104.131 6.06167C103.152 7.88415 102.59 10.0068 102.59 12.2743C102.59 13.0111 102.65 13.7329 102.763 14.4336C104.614 20.1877 110.889 23.0175 117.536 16.5496Z" fill="#FBBA00"/>
<path fill-rule="evenodd" clip-rule="evenodd" d="M116.737 7.55409C122.698 17.4111 114.707 23.6617 105.176 20.1148C105.344 20.3357 105.518 20.5496 105.699 20.757H105.669C108.07 23.7845 110.641 26.7552 113.695 29.5654C116.654 27.0471 119.198 24.3205 121.401 21.4239C124.634 15.681 122.722 10.6364 116.737 7.55409Z" fill="#B62F27"/>
<path fill-rule="evenodd" clip-rule="evenodd" d="M120.312 22.4722C120.776 10.4626 117.997 5.51271 109.687 6.73163C115.516 1.90293 123.007 4.40083 124.821 9.97439C124.951 10.7196 125.019 11.4883 125.019 12.2744C125.019 14.3771 124.536 16.3565 123.684 18.0867C122.899 19.5092 121.795 20.981 120.312 22.4722Z" fill="black"/>
<path fill-rule="evenodd" clip-rule="evenodd" d="M120.315 22.4722C121.443 10.4348 117.776 4.79205 109.688 6.73244C114.525 1.58563 122.398 3.99554 124.728 9.48406C124.918 10.3806 125.019 11.3145 125.019 12.2745C125.019 15.6006 123.81 18.6178 121.847 20.8284L121.544 21.2341C121.165 21.6456 120.757 22.0583 120.315 22.4722Z" fill="#E95522"/>
</svg>
