<svg width="468" height="457" viewBox="0 0 468 457" fill="none" xmlns="http://www.w3.org/2000/svg">
<path d="M233.727 456.514C362.811 456.514 467.454 397.435 467.454 324.558C467.454 251.681 362.811 192.602 233.727 192.602C104.643 192.602 0 251.681 0 324.558C0 397.435 104.643 456.514 233.727 456.514Z" fill="#F5F5F5"/>
<path d="M58.9208 412.226L51.7468 408.084C49.4858 406.779 49.4858 404.662 51.7468 403.357L303.377 258.071C305.638 256.766 309.307 256.76 311.572 258.059L318.785 262.195C321.05 263.494 321.053 265.604 318.792 266.91L67.1088 412.226C64.8478 413.532 61.1818 413.532 58.9208 412.226Z" fill="#E6E6E6"/>
<path d="M348.615 388.082C389.431 388.082 422.52 368.979 422.52 345.413C422.52 321.848 389.431 302.744 348.615 302.744C307.798 302.744 274.71 321.848 274.71 345.413C274.71 368.979 307.798 388.082 348.615 388.082Z" fill="#E0E0E0"/>
<path d="M76.8228 397.759C76.7488 397.784 75.4738 398.745 72.6478 399.025C70.4598 399.242 68.1818 398.91 66.5368 397.953C63.7628 396.357 61.5538 392.332 61.5538 388.945L61.5288 183.302L71.5188 189.07V394.688C71.5188 397.093 72.7268 398.484 74.4698 398.484C74.7158 398.484 75.6668 398.408 76.8228 397.759Z" fill="#E0E0E0"/>
<path d="M313.849 254.763C313.849 258.15 311.489 262.279 308.543 263.972L76.8228 397.759C73.9018 399.453 71.5188 398.075 71.5188 394.688V162.886L86.1478 154.442C89.0688 152.748 233.419 69.417 236.34 67.724L313.848 22.96V49.144L313.849 254.763Z" fill="#FAFAFA"/>
<path d="M311.58 26.891V49.144V254.762C311.58 257.343 309.632 260.728 307.409 262.006L75.6848 395.796C75.0568 396.16 74.6488 396.214 74.4608 396.214C73.8758 396.214 73.7888 395.258 73.7888 394.688V164.196L87.2868 156.405C88.7578 155.552 126.673 133.662 163.34 112.493C199.076 91.861 236.029 70.527 237.476 69.688L311.58 26.891ZM313.849 22.96L236.341 67.724C233.42 69.417 89.0698 152.748 86.1488 154.442L71.5198 162.886V394.688C71.5198 397.092 72.7198 398.484 74.4608 398.484C75.1728 398.484 75.9758 398.251 76.8238 397.759L308.544 263.972C311.49 262.278 313.85 258.15 313.85 254.763V49.144V22.96H313.849Z" fill="#EBEBEB"/>
<path d="M286.226 137.367L286.229 243.128C286.214 243.225 286.101 243.421 286.053 243.464L109.943 345.142L109.94 239.382C109.955 239.285 110.068 239.089 110.116 239.046L286.226 137.367ZM287.655 134.257C287.49 134.257 287.304 134.311 287.107 134.425L109.062 237.22C108.384 237.612 107.834 238.564 107.834 239.347L107.835 347.376C107.835 347.932 108.112 348.253 108.515 348.253C108.68 348.253 108.866 348.199 109.064 348.085L287.109 245.29C287.787 244.898 288.337 243.946 288.337 243.163L288.335 135.134C288.334 134.578 288.057 134.257 287.655 134.257Z" fill="#EBEBEB"/>
<path d="M66.5258 179.238C63.7738 177.648 61.5418 173.612 61.5418 170.223L61.5338 145.224C61.5338 141.835 63.9188 137.714 66.8548 136.02L298.571 2.23014C301.506 0.53614 306.117 0.451139 308.87 2.04014C311.623 3.63014 313.855 7.66614 313.845 11.0521L313.849 36.0561C313.859 39.4481 311.479 43.5641 308.543 45.2581L76.8228 179.045C73.8878 180.739 69.2788 180.828 66.5258 179.238Z" fill="#263238"/>
<path d="M313.796 10.1881C313.428 7.43909 311.194 6.43209 308.543 7.97909L76.8218 141.768C75.3738 142.627 74.0488 144.075 73.0658 145.744L63.1008 139.976C64.0828 138.307 65.3828 136.879 66.8558 136.02L298.578 2.23509C301.499 0.54109 306.114 0.443091 308.863 2.03909C311.39 3.51209 313.477 6.99709 313.796 10.1881Z" fill="#455A64"/>
<path d="M313.845 11.0472L313.849 22.9612L236.341 67.7252C233.42 69.4182 89.0698 152.749 86.1488 154.443L71.5198 162.887V150.974C71.5198 147.587 73.9008 143.463 76.8218 141.769L308.543 7.97916C311.464 6.28516 313.845 7.66016 313.845 11.0472Z" fill="#37474F"/>
<path d="M304.954 15.6979C306.672 14.7059 308.065 15.5099 308.065 17.4939C308.065 19.4779 306.672 21.8899 304.954 22.8829C303.235 23.8749 301.843 23.0709 301.843 21.0869C301.842 19.1029 303.235 16.6899 304.954 15.6979Z" fill="white"/>
<path d="M293.752 22.1559C295.47 21.1639 296.863 21.9679 296.863 23.9529C296.863 25.9369 295.47 28.3499 293.752 29.3419C292.034 30.3339 290.641 29.5299 290.641 27.5459C290.641 25.5609 292.034 23.1479 293.752 22.1559Z" fill="white"/>
<path d="M282.551 28.6139C284.27 27.6219 285.662 28.4259 285.662 30.4099C285.662 32.3939 284.269 34.8069 282.551 35.7989C280.833 36.7909 279.44 35.9869 279.44 34.0029C279.44 32.0189 280.833 29.6059 282.551 28.6139Z" fill="white"/>
<path d="M80.5278 157.669C82.0088 156.81 82.5058 155.505 83.2158 153.003L84.8488 147.37C85.4408 145.105 86.0558 143.562 87.5488 142.704L152.4 105.255C153.893 104.396 155.058 104.302 156.194 106.179L158.164 109.81C159.009 111.271 159.432 112.129 160.913 111.271L211.268 82.206L313.849 22.96V49.156L71.5188 189.082V162.886L80.5278 157.669Z" fill="#E0E0E0"/>
<path d="M71.5188 162.886V189.07L61.5298 183.302V157.142L71.5188 162.886Z" fill="#E0E0E0"/>
<path opacity="0.15" d="M71.5188 162.886V189.07L61.5298 183.302V157.142L71.5188 162.886Z" fill="black"/>
<path opacity="0.3" d="M84.9898 168.076L80.3238 170.77L82.1028 167.348C82.2588 167.048 82.2758 166.674 82.1378 166.512C82.0018 166.349 81.7638 166.464 81.6088 166.763L79.0778 171.632C79.0748 171.638 79.0738 171.645 79.0708 171.651C79.0428 171.707 79.0218 171.768 79.0028 171.831C78.9958 171.851 78.9868 171.87 78.9818 171.89C78.9608 171.973 78.9488 172.058 78.9488 172.142C78.9488 172.225 78.9608 172.296 78.9818 172.356C78.9868 172.371 78.9958 172.378 79.0028 172.391C79.0218 172.432 79.0428 172.469 79.0708 172.493C79.0738 172.496 79.0748 172.501 79.0778 172.503L81.6088 174.449C81.6798 174.504 81.7678 174.5 81.8558 174.449C81.9598 174.389 82.0638 174.262 82.1378 174.088C82.2748 173.769 82.2588 173.413 82.1028 173.293L80.3238 171.925L84.9898 169.231C85.1968 169.111 85.3648 168.756 85.3648 168.436C85.3648 168.118 85.1968 167.957 84.9898 168.076Z" fill="black"/>
<path opacity="0.3" d="M88.8868 165.826L93.5528 163.132L91.7738 161.764C91.6178 161.644 91.6018 161.289 91.7388 160.969C91.8748 160.649 92.1128 160.49 92.2678 160.609L94.7988 162.555C94.8018 162.557 94.8028 162.563 94.8058 162.566C94.8338 162.59 94.8548 162.627 94.8738 162.668C94.8798 162.681 94.8898 162.688 94.8948 162.703C94.9148 162.763 94.9278 162.834 94.9278 162.917C94.9278 163 94.9148 163.085 94.8948 163.168C94.8898 163.188 94.8798 163.207 94.8738 163.227C94.8548 163.29 94.8338 163.351 94.8058 163.407C94.8028 163.413 94.8018 163.42 94.7988 163.426L92.2678 168.295C92.1968 168.432 92.1088 168.529 92.0208 168.58C91.9168 168.64 91.8128 168.633 91.7388 168.545C91.6018 168.384 91.6178 168.009 91.7738 167.709L93.5528 164.287L88.8868 166.981C88.6798 167.101 88.5118 166.939 88.5118 166.62C88.5118 166.302 88.6798 165.946 88.8868 165.826Z" fill="black"/>
<path opacity="0.3" d="M103.792 152.39C103.763 152.108 103.518 152.145 103.394 152.449L102.755 154.012C101.666 153.893 100.345 154.958 99.4528 156.846C98.2978 159.293 98.2978 162.187 99.4528 163.299C100.031 163.855 100.79 163.862 101.549 163.423C102.308 162.985 103.067 162.102 103.644 160.879C103.791 160.569 103.791 160.203 103.644 160.062C103.498 159.921 103.26 160.058 103.113 160.368C102.25 162.192 100.846 163.006 99.9828 162.175C99.1198 161.345 99.1198 159.183 99.9828 157.356C100.597 156.057 101.48 155.288 102.251 155.24L101.769 156.418C101.644 156.723 101.758 157.008 101.955 156.88L103.858 155.638C103.992 155.551 104.09 155.308 104.071 155.116L103.792 152.39Z" fill="black"/>
<path opacity="0.3" d="M151.448 113.615L153.318 109.657C153.539 109.189 153.539 108.638 153.318 108.425C153.097 108.212 152.739 108.419 152.518 108.887L150.648 112.845L148.778 111.046C148.557 110.833 148.199 111.04 147.978 111.508C147.757 111.976 147.757 112.527 147.978 112.74L149.848 114.54L147.978 118.498C147.757 118.966 147.757 119.517 147.978 119.73C148.088 119.836 148.233 119.838 148.378 119.754C148.523 119.67 148.667 119.502 148.778 119.268L150.648 115.31L152.518 117.11C152.629 117.216 152.773 117.218 152.918 117.134C153.063 117.051 153.208 116.882 153.318 116.648C153.539 116.18 153.539 115.629 153.318 115.416L151.448 113.615Z" fill="black"/>
<path d="M114.121 154.187V149.013C114.121 147.383 115.266 145.4 116.678 144.585L291.895 43.1942C293.307 42.3792 294.452 43.0402 294.452 44.6702V49.8432C294.452 51.4742 293.307 53.4562 291.895 54.2712L116.678 155.663C115.266 156.478 114.121 155.817 114.121 154.187Z" fill="#FAFAFA"/>
<path d="M288.417 54.6683C288.334 54.6683 288.256 54.6513 288.187 54.6233C287.968 54.5323 287.752 54.2823 287.804 53.8503L288.056 51.7513L287.07 51.0403C286.899 50.9163 286.803 50.7143 286.799 50.4703C286.794 50.1333 286.964 49.7743 287.221 49.5753L288.723 48.4173C288.735 48.4073 288.77 48.3633 288.789 48.3003L289.46 46.0993C289.583 45.6963 289.886 45.4093 290.216 45.3853C290.474 45.3623 290.694 45.5023 290.805 45.7393L291.37 46.9373L292.639 46.4503C292.886 46.3543 293.145 46.4143 293.315 46.6053C293.534 46.8523 293.548 47.2673 293.35 47.6403L292.264 49.6793C292.233 49.7363 292.226 49.7883 292.227 49.8033L292.484 51.6473C292.533 52.0083 292.358 52.3693 292.163 52.5683C291.989 52.7443 291.777 52.8293 291.569 52.8003L290.342 52.6483L289.016 54.3403C288.825 54.5823 288.607 54.6683 288.417 54.6683ZM287.694 50.3983L288.676 51.1063C288.876 51.2523 288.975 51.5153 288.94 51.8113L288.773 53.2093L289.66 52.0773C289.844 51.8423 290.078 51.7213 290.334 51.7543L291.561 51.9063C291.588 51.8613 291.61 51.7993 291.606 51.7683L291.349 49.9223C291.32 49.7113 291.369 49.4703 291.482 49.2603L292.432 47.4773L291.454 47.8523C291.144 47.9703 290.817 47.8383 290.677 47.5433L290.233 46.6003L289.637 48.5583C289.567 48.7853 289.432 48.9883 289.266 49.1173L287.763 50.2763C287.734 50.2983 287.708 50.3513 287.694 50.3983Z" fill="#E0E0E0"/>
<g opacity="0.2">
<path d="M299.323 41.1912C299.031 41.1912 298.749 41.0402 298.593 40.7702C298.36 40.3672 298.499 39.8522 298.901 39.6202L305.742 35.6702C306.147 35.4372 306.66 35.5762 306.892 35.9782C307.125 36.3812 306.986 36.8962 306.584 37.1282L299.743 41.0782C299.61 41.1542 299.465 41.1912 299.323 41.1912Z" fill="black"/>
<path d="M299.323 45.1423C299.031 45.1423 298.749 44.9913 298.593 44.7213C298.36 44.3183 298.499 43.8033 298.901 43.5713L305.742 39.6213C306.147 39.3863 306.66 39.5273 306.892 39.9293C307.125 40.3323 306.986 40.8473 306.584 41.0793L299.743 45.0293C299.61 45.1053 299.465 45.1423 299.323 45.1423Z" fill="black"/>
<path d="M299.323 49.0929C299.031 49.0929 298.749 48.942 298.593 48.672C298.36 48.269 298.499 47.7539 298.901 47.5219L305.742 43.572C306.147 43.337 306.66 43.478 306.892 43.88C307.125 44.283 306.986 44.798 306.584 45.03L299.743 48.9799C299.61 49.056 299.465 49.0929 299.323 49.0929Z" fill="black"/>
</g>
<path d="M238.06 111.878L288.136 82.9671C289.62 82.1101 290.823 82.8051 290.823 84.5181L290.825 95.7751C290.825 97.4881 289.623 99.5721 288.139 100.429L238.062 129.339C236.578 130.196 235.375 129.501 235.375 127.788L235.374 116.532C235.373 114.818 236.576 112.735 238.06 111.878Z" fill="#36013F"/>
<path opacity="0.3" d="M238.06 111.878L288.136 82.9671C289.62 82.1101 290.823 82.8051 290.823 84.5181L290.825 95.7751C290.825 97.4881 289.623 99.5721 288.139 100.429L238.062 129.339C236.578 130.196 235.375 129.501 235.375 127.788L235.374 116.532C235.373 114.818 236.576 112.735 238.06 111.878Z" fill="white"/>
<path d="M177.57 146.751L227.646 117.84C229.13 116.983 230.333 117.678 230.333 119.391L230.335 130.648C230.335 132.361 229.133 134.445 227.649 135.302L177.572 164.213C176.088 165.07 174.885 164.375 174.885 162.662L174.884 151.406C174.884 149.691 176.086 147.608 177.57 146.751Z" fill="#36013F"/>
<path opacity="0.3" d="M177.57 146.751L227.646 117.84C229.13 116.983 230.333 117.678 230.333 119.391L230.335 130.648C230.335 132.361 229.133 134.445 227.649 135.302L177.572 164.213C176.088 165.07 174.885 164.375 174.885 162.662L174.884 151.406C174.884 149.691 176.086 147.608 177.57 146.751Z" fill="white"/>
<path d="M169.824 160.209C169.824 159.351 169.522 158.748 169.034 158.468C168.548 158.189 164.485 155.828 163.996 155.549C163.51 155.272 162.841 155.314 162.102 155.74L96.9188 193.361C95.4348 194.218 94.2318 196.301 94.2318 198.015L94.2328 209.271C94.2328 210.119 94.5268 210.717 95.0048 211.001C95.4918 211.291 99.5838 213.648 100.074 213.927C100.56 214.203 101.229 214.161 101.967 213.735L167.161 176.132C168.645 175.275 169.847 173.192 169.847 171.478L169.824 160.209Z" fill="#36013F"/>
<path opacity="0.15" d="M169.824 160.209C169.824 159.351 169.522 158.748 169.034 158.468C168.548 158.189 164.485 155.828 163.996 155.549C163.51 155.272 162.841 155.314 162.102 155.74L96.9188 193.361C95.4348 194.218 94.2318 196.301 94.2318 198.015L94.2328 209.271C94.2328 210.119 94.5268 210.717 95.0048 211.001C95.4918 211.291 99.5838 213.648 100.074 213.927C100.56 214.203 101.229 214.161 101.967 213.735L167.161 176.132C168.645 175.275 169.847 173.192 169.847 171.478L169.824 160.209Z" fill="black"/>
<path d="M101.959 196.274L167.13 158.658C167.871 158.23 168.541 158.189 169.027 158.468C169.515 158.748 169.817 159.351 169.817 160.209L169.841 171.479C169.841 173.193 168.639 175.276 167.155 176.133L101.961 213.736C101.223 214.162 100.554 214.204 100.068 213.928C99.5768 213.649 99.2738 213.045 99.2738 212.184L99.2728 200.928C99.2718 199.214 100.475 197.13 101.959 196.274Z" fill="#36013F"/>
<path d="M169.035 158.471C168.551 158.186 167.881 158.235 167.136 158.657L101.97 196.271C101.225 196.693 100.555 197.438 100.059 198.281L95.0208 195.365C95.5048 194.521 96.1748 193.789 96.9198 193.355L162.098 155.737C162.843 155.315 163.513 155.265 163.997 155.551C164.48 155.823 168.551 158.186 169.035 158.471Z" fill="#36013F"/>
<path opacity="0.3" d="M169.035 158.471C168.551 158.186 167.881 158.235 167.136 158.657L101.97 196.271C101.225 196.693 100.555 197.438 100.059 198.281L95.0208 195.365C95.5048 194.521 96.1748 193.789 96.9198 193.355L162.098 155.737C162.843 155.315 163.513 155.265 163.997 155.551C164.48 155.823 168.551 158.186 169.035 158.471Z" fill="white"/>
<path d="M114.294 197.77L115.899 192.55C115.922 192.493 115.96 192.402 116.013 192.275C116.066 192.149 116.15 192.054 116.262 191.988L116.836 191.656C116.898 191.621 116.951 191.624 116.996 191.667C117.041 191.711 117.063 191.781 117.063 191.876V200.279C117.063 200.374 117.04 200.47 116.996 200.565C116.951 200.661 116.897 200.726 116.836 200.762L116.152 201.157C116.09 201.193 116.037 201.189 115.991 201.146C115.946 201.103 115.924 201.033 115.924 200.938V195.852L114.826 199.412C114.798 199.498 114.759 199.592 114.707 199.696C114.657 199.799 114.592 199.873 114.513 199.919L114.074 200.173C113.995 200.219 113.931 200.219 113.88 200.175C113.829 200.131 113.79 200.082 113.762 200.028L112.663 197.736V202.822C112.663 202.917 112.64 203.013 112.595 203.108C112.55 203.204 112.497 203.269 112.435 203.305L111.751 203.7C111.688 203.736 111.635 203.732 111.59 203.688C111.545 203.646 111.522 203.576 111.522 203.48V195.077C111.522 194.982 111.545 194.886 111.59 194.79C111.635 194.695 111.688 194.63 111.751 194.594L112.325 194.262C112.437 194.197 112.52 194.196 112.574 194.261C112.628 194.327 112.666 194.373 112.688 194.404L114.294 197.77Z" fill="#FAFAFA"/>
<path d="M118.088 196.659C118.088 196.173 118.136 195.688 118.232 195.203C118.327 194.718 118.465 194.266 118.646 193.845C118.826 193.425 119.044 193.05 119.3 192.719C119.557 192.389 119.843 192.133 120.158 191.951C120.473 191.769 120.76 191.693 121.015 191.723C121.271 191.753 121.49 191.866 121.669 192.06C121.85 192.255 121.989 192.526 122.087 192.873C122.186 193.219 122.236 193.613 122.236 194.055V194.64C122.236 194.736 122.213 194.831 122.168 194.927C122.123 195.022 122.069 195.088 122.007 195.123L119.185 196.752C119.185 196.952 119.211 197.112 119.265 197.233C119.318 197.354 119.391 197.44 119.481 197.493C119.571 197.545 119.675 197.563 119.793 197.546C119.912 197.529 120.033 197.486 120.157 197.414C120.337 197.31 120.484 197.198 120.596 197.076C120.709 196.955 120.801 196.83 120.875 196.7C120.937 196.595 120.988 196.518 121.027 196.47C121.066 196.421 121.119 196.378 121.188 196.338L121.863 195.948C121.926 195.912 121.98 195.915 122.028 195.956C122.076 195.998 122.097 196.069 122.091 196.167C122.086 196.292 122.042 196.473 121.96 196.711C121.878 196.949 121.756 197.206 121.592 197.482C121.429 197.759 121.228 198.031 120.989 198.299C120.749 198.568 120.472 198.793 120.157 198.975C119.841 199.157 119.555 199.238 119.299 199.217C119.043 199.195 118.824 199.081 118.645 198.873C118.464 198.665 118.327 198.374 118.231 198C118.136 197.626 118.088 197.179 118.088 196.659ZM120.159 193.512C119.996 193.606 119.856 193.724 119.741 193.865C119.625 194.005 119.529 194.156 119.449 194.319C119.371 194.482 119.31 194.647 119.267 194.815C119.224 194.982 119.198 195.134 119.187 195.27L121.096 194.168C121.085 194.044 121.064 193.92 121.032 193.795C121.001 193.669 120.95 193.569 120.881 193.491C120.81 193.415 120.718 193.373 120.602 193.366C120.486 193.36 120.339 193.408 120.159 193.512Z" fill="#FAFAFA"/>
<path d="M127.281 194.383C127.281 194.478 127.258 194.574 127.214 194.669C127.168 194.765 127.114 194.83 127.053 194.866L126.41 195.237C126.348 195.273 126.295 195.269 126.25 195.225C126.204 195.182 126.182 195.112 126.182 195.017V191.713C126.182 191.192 126.104 190.821 125.946 190.6C125.788 190.379 125.546 190.363 125.219 190.551C124.92 190.723 124.684 191.015 124.514 191.426C124.342 191.837 124.256 192.304 124.256 192.824V196.128C124.256 196.223 124.233 196.319 124.188 196.414C124.143 196.51 124.089 196.576 124.028 196.611L123.385 196.982C123.323 197.018 123.27 197.014 123.224 196.97C123.179 196.927 123.157 196.857 123.157 196.762V190.7C123.157 190.605 123.179 190.51 123.224 190.414C123.269 190.319 123.323 190.253 123.385 190.217L124.028 189.846C124.09 189.81 124.143 189.815 124.188 189.857C124.234 189.901 124.256 189.97 124.256 190.065V190.364C124.402 190.054 124.574 189.768 124.771 189.507C124.967 189.246 125.201 189.037 125.472 188.881C125.816 188.683 126.103 188.599 126.334 188.63C126.564 188.662 126.751 188.776 126.891 188.972C127.032 189.168 127.132 189.433 127.191 189.768C127.25 190.103 127.28 190.474 127.28 190.882L127.281 194.383Z" fill="#FAFAFA"/>
<path d="M128.362 187.696C128.362 187.601 128.385 187.506 128.429 187.41C128.473 187.315 128.527 187.249 128.59 187.213L129.232 186.842C129.294 186.807 129.347 186.811 129.393 186.854C129.437 186.898 129.46 186.967 129.46 187.062V190.367C129.46 190.887 129.532 191.262 129.676 191.491C129.819 191.72 130.054 191.741 130.381 191.552C130.68 191.38 130.908 191.092 131.066 190.689C131.223 190.286 131.302 189.824 131.302 189.304V185.999C131.302 185.904 131.325 185.809 131.37 185.713C131.415 185.618 131.468 185.552 131.53 185.516L132.172 185.145C132.234 185.109 132.287 185.114 132.333 185.156C132.377 185.2 132.4 185.269 132.4 185.364V191.426C132.4 191.521 132.377 191.617 132.333 191.712C132.287 191.808 132.233 191.873 132.172 191.909L131.53 192.28C131.468 192.316 131.415 192.312 131.37 192.268C131.325 192.225 131.302 192.155 131.302 192.06V191.761C131.172 192.036 131.013 192.308 130.82 192.579C130.629 192.85 130.398 193.063 130.128 193.22C129.784 193.418 129.5 193.5 129.274 193.466C129.049 193.431 128.868 193.314 128.733 193.115C128.598 192.915 128.503 192.648 128.446 192.311C128.39 191.975 128.362 191.603 128.362 191.196V187.696Z" fill="#FAFAFA"/>
<path d="M155.798 176.888L152.081 174.077L152.751 172.812L155.488 174.881L158.226 169.651L159.206 170.391L155.798 176.888Z" fill="#FAFAFA"/>
<path d="M233.017 205.197C233.017 204.339 232.715 203.736 232.227 203.456C231.741 203.177 227.689 200.833 227.199 200.554C226.713 200.277 226.035 200.31 225.295 200.737L182.611 225.373C181.127 226.23 179.924 226.926 179.924 226.926L179.925 311.132C179.925 311.98 180.219 312.578 180.697 312.862C181.184 313.152 185.276 315.509 185.766 315.788C186.252 316.064 186.921 316.022 187.659 315.596L230.354 290.969C231.838 290.112 233.04 288.029 233.04 286.315L233.017 205.197Z" fill="#E0E0E0"/>
<path d="M227.2 200.556C226.716 200.271 226.037 200.312 225.292 200.734L182.612 225.368C181.867 225.802 179.924 226.927 179.924 226.927L171.961 231.524C171.124 232.007 171.193 233.181 171.967 233.612C172.058 233.663 176.459 236.427 177.31 236.641L184.966 238.568V229.837C184.966 229.837 186.92 228.706 187.665 228.284L230.331 203.646C231.076 203.224 231.746 203.175 232.23 203.46C231.745 203.174 227.684 200.829 227.2 200.556Z" fill="#F0F0F0"/>
<path d="M233.011 205.197C233.011 204.339 232.709 203.736 232.221 203.456C231.735 203.177 231.064 203.218 230.324 203.646L184.966 229.837L177.003 234.434C176.17 234.915 176.234 236.08 176.997 236.516C177.091 236.57 177.196 236.612 177.311 236.641L184.966 238.567L184.967 314.045C184.967 314.906 185.271 315.51 185.761 315.788C186.247 316.064 186.915 316.022 187.654 315.596L230.349 290.969C231.833 290.112 233.035 288.029 233.035 286.315L233.011 205.197Z" fill="#FAFAFA"/>
<path d="M231.548 204.609C231.575 204.634 231.675 204.806 231.675 205.197L231.699 286.316C231.699 287.558 230.756 289.192 229.681 289.813L186.986 314.44C186.692 314.61 186.516 314.628 186.429 314.633C186.402 314.608 186.302 314.436 186.302 314.045L186.301 238.567V237.526L185.291 237.272L177.95 235.429L185.633 230.993L230.991 204.802C231.285 204.632 231.461 204.614 231.523 204.614L231.548 204.609ZM231.523 203.279C231.162 203.279 230.754 203.397 230.323 203.646L184.965 229.837L177.002 234.434C176.169 234.915 176.233 236.08 176.996 236.516C177.09 236.57 177.195 236.612 177.31 236.641L184.965 238.567L184.966 314.045C184.966 314.906 185.27 315.51 185.76 315.788C185.962 315.903 186.196 315.963 186.453 315.963C186.814 315.963 187.222 315.845 187.653 315.596L230.348 290.969C231.832 290.112 233.034 288.029 233.034 286.315L233.01 205.195C233.01 204.337 232.708 203.734 232.22 203.454C232.018 203.34 231.782 203.279 231.523 203.279Z" fill="#E0E0E0"/>
<path d="M184.966 281.507V282.94L233.026 255.193L233.025 253.76L184.966 281.507Z" fill="#E0E0E0"/>
<path d="M184.966 300.402L233.031 272.652L233.03 271.219L184.966 298.97V300.402Z" fill="#E0E0E0"/>
<path d="M184.965 246.582V248.015L233.015 220.274V218.841L184.965 246.582Z" fill="#E0E0E0"/>
<path d="M184.966 264.045V265.478L233.02 237.733V236.3L184.966 264.045Z" fill="#E0E0E0"/>
<path d="M186.207 264.762L231.825 238.423V254.577L186.207 280.79V264.762Z" fill="#36013F"/>
<path opacity="0.6" d="M186.207 264.762L231.825 238.423V254.577L186.207 280.79V264.762Z" fill="white"/>
<path d="M195.047 264.75L215.21 253.109C216.1 252.595 216.822 253.012 216.822 254.04V254.897C216.822 255.925 216.1 257.175 215.21 257.689L195.047 269.33C194.157 269.844 193.435 269.427 193.435 268.399V267.542C193.435 266.514 194.157 265.264 195.047 264.75Z" fill="#36013F"/>
<path d="M195.047 247.313L215.21 235.672C216.1 235.158 216.822 235.575 216.822 236.603V237.46C216.822 238.488 216.1 239.738 215.21 240.252L195.047 251.893C194.157 252.407 193.435 251.99 193.435 250.962V250.105C193.435 249.077 194.157 247.827 195.047 247.313Z" fill="#E0E0E0"/>
<path d="M195.047 229.837L215.21 218.196C216.1 217.682 216.822 218.099 216.822 219.127V219.984C216.822 221.012 216.1 222.262 215.21 222.776L195.048 234.417C194.158 234.931 193.436 234.514 193.436 233.486V232.629C193.435 231.601 194.157 230.351 195.047 229.837Z" fill="#E0E0E0"/>
<path d="M195.047 299.681L215.21 288.04C216.1 287.526 216.822 287.943 216.822 288.971V289.828C216.822 290.856 216.1 292.106 215.21 292.62L195.047 304.261C194.157 304.775 193.435 304.358 193.435 303.33V302.473C193.435 301.445 194.157 300.195 195.047 299.681Z" fill="#E0E0E0"/>
<path d="M195.047 282.205L215.21 270.564C216.1 270.05 216.822 270.467 216.822 271.495V272.352C216.822 273.38 216.1 274.63 215.21 275.144L195.047 286.785C194.157 287.299 193.435 286.882 193.435 285.854V284.997C193.435 283.969 194.157 282.719 195.047 282.205Z" fill="#E0E0E0"/>
<path d="M169.824 195.116C169.824 194.258 169.522 193.655 169.034 193.375C168.548 193.096 164.496 190.752 164.006 190.473C163.52 190.196 162.842 190.229 162.102 190.656L96.918 228.268C95.434 229.125 94.231 231.208 94.231 232.922L94.232 314.028C94.232 314.876 94.526 315.474 95.004 315.758C95.491 316.048 99.583 318.405 100.073 318.684C100.559 318.96 101.228 318.918 101.966 318.492L167.16 280.889C168.644 280.032 169.846 277.949 169.846 276.235L169.824 195.116Z" fill="#E0E0E0"/>
<path d="M169.035 193.379C168.551 193.094 167.881 193.143 167.136 193.565L101.97 231.179C101.225 231.601 100.555 232.346 100.059 233.189L95.0209 230.273C95.5049 229.429 96.1749 228.697 96.9199 228.263L162.099 190.653C162.844 190.231 163.523 190.19 164.007 190.475C164.491 190.748 168.551 193.093 169.035 193.379Z" fill="#F0F0F0"/>
<path d="M159.761 197.823L157.257 193.487C157.167 193.332 157.047 193.215 156.911 193.136C156.425 192.854 152.013 190.297 151.879 190.218C151.392 189.93 150.698 190.122 150.488 190.73L147.622 199.011L152.661 201.934L159.761 197.823Z" fill="#E0E0E0"/>
<path d="M169.817 195.116C169.817 194.258 169.515 193.655 169.027 193.375C168.541 193.096 167.87 193.137 167.13 193.565L159.759 197.819L157.257 193.486C156.848 192.777 155.794 192.877 155.527 193.651L152.669 201.911L101.959 231.181C100.475 232.038 99.272 234.121 99.272 235.835L99.273 316.941C99.273 317.802 99.577 318.406 100.067 318.685C100.553 318.961 101.222 318.919 101.96 318.493L167.154 280.89C168.638 280.033 169.841 277.95 169.84 276.236L169.817 195.116Z" fill="#FAFAFA"/>
<path d="M168.355 194.528C168.388 194.558 168.482 194.731 168.482 195.116L168.506 276.235C168.506 277.477 167.563 279.111 166.488 279.731L101.294 317.334C101 317.504 100.824 317.522 100.737 317.528C100.71 317.503 100.61 317.331 100.61 316.94L100.609 235.834C100.609 234.592 101.552 232.958 102.627 232.337L153.337 203.067L153.769 202.818L153.932 202.347L156.518 194.874L158.603 198.486L159.271 199.642L160.428 198.975L167.799 194.72C168.091 194.552 168.268 194.534 168.355 194.528ZM156.433 193.009C156.052 193.009 155.673 193.231 155.528 193.652L152.67 201.912L101.96 231.182C100.476 232.039 99.2729 234.122 99.2729 235.836L99.2739 316.942C99.2739 317.803 99.5779 318.407 100.068 318.686C100.27 318.801 100.504 318.861 100.761 318.861C101.122 318.861 101.53 318.743 101.961 318.494L167.155 280.891C168.639 280.034 169.842 277.951 169.841 276.237L169.817 195.117C169.817 194.259 169.515 193.656 169.027 193.376C168.824 193.259 168.589 193.199 168.33 193.199C167.969 193.199 167.561 193.317 167.13 193.566L159.759 197.82L157.257 193.487C157.071 193.164 156.751 193.009 156.433 193.009Z" fill="#E0E0E0"/>
<path d="M99.272 249.492V250.925L169.839 210.183V208.75L99.272 249.492Z" fill="#E0E0E0"/>
<path d="M99.2729 284.417V285.849L169.84 245.107V243.674L99.2729 284.417Z" fill="#E0E0E0"/>
<path d="M99.2729 303.312L169.841 262.57L169.84 261.137L99.2729 301.88V303.312Z" fill="#E0E0E0"/>
<path d="M99.272 266.954V268.387L169.84 227.645V226.212L99.272 266.954Z" fill="#E0E0E0"/>
<path d="M100.53 267.671L168.622 228.348L168.602 244.389L100.53 283.701V267.671Z" fill="#36013F"/>
<path opacity="0.6" d="M100.53 267.671L168.622 228.348L168.602 244.389L100.53 283.701V267.671Z" fill="white"/>
<path d="M110.965 266.74L143.027 248.229C143.917 247.715 144.639 248.132 144.639 249.16V250.017C144.639 251.045 143.917 252.295 143.027 252.809L110.965 271.32C110.075 271.834 109.353 271.417 109.353 270.389V269.532C109.353 268.505 110.075 267.254 110.965 266.74Z" fill="#36013F"/>
<path d="M110.965 249.303L143.027 230.792C143.917 230.278 144.639 230.695 144.639 231.723V232.58C144.639 233.608 143.917 234.858 143.027 235.372L110.965 253.883C110.075 254.397 109.353 253.98 109.353 252.952V252.095C109.353 251.067 110.075 249.817 110.965 249.303Z" fill="#E0E0E0"/>
<path d="M110.965 231.828L143.027 213.317C143.917 212.803 144.639 213.22 144.639 214.248V215.105C144.639 216.133 143.917 217.383 143.027 217.897L110.965 236.408C110.075 236.922 109.353 236.505 109.353 235.477V234.62C109.353 233.592 110.075 232.342 110.965 231.828Z" fill="#E0E0E0"/>
<path d="M110.965 301.671L143.027 283.16C143.917 282.646 144.639 283.063 144.639 284.091V284.948C144.639 285.976 143.917 287.226 143.027 287.74L110.965 306.251C110.075 306.765 109.353 306.348 109.353 305.32V304.463C109.353 303.436 110.075 302.185 110.965 301.671Z" fill="#E0E0E0"/>
<path d="M110.965 284.196L143.027 265.685C143.917 265.171 144.639 265.588 144.639 266.616V267.473C144.639 268.501 143.917 269.751 143.027 270.265L110.965 288.776C110.075 289.29 109.353 288.873 109.353 287.845V286.988C109.353 285.96 110.075 284.71 110.965 284.196Z" fill="#E0E0E0"/>
<path d="M246.395 267.124L231.348 249.097C231.253 248.983 231.161 248.902 231.077 248.853C230.77 248.675 227.551 246.818 227.467 246.769C227.158 246.589 226.937 246.828 226.936 247.42L226.856 283.851C226.855 284.159 226.904 284.337 226.988 284.386C227.108 284.457 230.517 286.425 230.602 286.472C230.722 286.54 230.913 286.342 231.128 285.882L233.711 280.359L235.184 285.616C235.242 285.823 235.342 285.966 235.471 286.045C235.766 286.225 238.96 288.059 239.094 288.137C239.389 288.307 239.827 288.149 240.247 287.666L242.331 285.271C242.941 284.57 243.282 283.448 243.09 282.766L240.245 272.61C240.054 271.928 240.587 271.064 241.436 270.68L245.655 268.773C246.504 268.39 246.835 267.652 246.395 267.124Z" fill="#36013F"/>
<path d="M246.395 267.124L231.348 249.097C231.253 248.983 231.161 248.902 231.077 248.853C230.77 248.675 227.551 246.818 227.467 246.769C227.158 246.589 226.937 246.828 226.936 247.42L226.856 283.851C226.855 284.159 226.904 284.337 226.988 284.386C227.108 284.457 230.517 286.425 230.602 286.472C230.722 286.54 230.913 286.342 231.128 285.882L233.711 280.359L235.184 285.616C235.242 285.823 235.342 285.966 235.471 286.045C235.766 286.225 238.96 288.059 239.094 288.137C239.389 288.307 239.827 288.149 240.247 287.666L242.331 285.271C242.941 284.57 243.282 283.448 243.09 282.766L240.245 272.61C240.054 271.928 240.587 271.064 241.436 270.68L245.655 268.773C246.504 268.39 246.835 267.652 246.395 267.124Z" fill="#37474F"/>
<path d="M230.468 285.936L230.548 249.506C230.55 248.753 230.908 248.57 231.349 249.098L246.396 267.125C246.836 267.653 246.505 268.392 245.656 268.775L241.437 270.682C240.588 271.066 240.055 271.93 240.246 272.612L243.091 282.768C243.282 283.45 242.942 284.571 242.332 285.273L240.248 287.668C239.637 288.37 238.988 288.385 238.797 287.703L235.952 277.547C235.761 276.865 235.309 276.947 234.943 277.729L231.13 285.884C230.761 286.665 230.466 286.689 230.468 285.936Z" fill="#455A64"/>
<path d="M239.032 288.099C238.572 287.836 235.749 286.213 235.468 286.045C235.342 285.967 235.241 285.824 235.181 285.615L233.712 280.362L234.942 277.729C235.306 276.947 235.76 276.863 235.951 277.544L238.793 287.698C238.847 287.884 238.924 288.015 239.032 288.099Z" fill="#263238"/>
<path d="M317.925 356.876L309.683 340.637L293.092 350.347L313.544 374.49C313.544 374.49 323.681 373.552 325.314 368.263C326.945 362.974 320.717 358.635 317.925 356.876Z" fill="#C8856A"/>
<path d="M329.612 363.253C330.623 363.945 331.243 364.775 331.911 365.766C332.579 366.757 332.372 371.565 333.01 373.795C333.648 376.025 334.141 376.62 335.207 379.416C336.388 382.515 338.574 385.345 336.106 393.308C333.606 401.378 329.682 405.067 326.345 407.013C324.591 408.036 322.321 407.989 322.321 407.989C322.321 407.989 317.948 406.336 318.619 403.75C319.289 401.164 329.612 363.253 329.612 363.253Z" fill="#263238"/>
<path d="M310.424 371.995C310.545 372.815 311.692 374.076 312.158 374.746C313.726 376.999 314.447 380.045 314.992 382.708C317.571 395.311 312.561 401.717 319.344 406.444C321.31 407.681 325.386 407.342 331.582 399.398C334.747 395.34 336.554 386.996 335.32 383.217C334.085 379.439 332.396 376.978 331.599 374.071C330.803 371.165 331.217 365.748 329.613 363.252C328.672 361.787 327.141 360.757 325.678 359.867C324.475 359.136 321.844 358.173 320.616 357.475C319.289 356.721 318.714 355.985 317.925 356.875L319.341 358.625C321.553 361.686 320.936 362.134 320.883 363.764C320.828 365.463 321.395 367.262 321.705 368.953C320.132 366.969 319.489 365.235 317.772 365.54C316.165 365.825 315.85 365.761 313.389 368.069C310.928 370.379 310.317 371.266 310.424 371.995Z" fill="#36013F"/>
<path opacity="0.4" d="M310.424 371.995C310.545 372.815 311.692 374.076 312.158 374.746C313.726 376.999 314.447 380.045 314.992 382.708C317.571 395.311 312.561 401.717 319.344 406.444C321.31 407.681 325.386 407.342 331.582 399.398C334.747 395.34 336.554 386.996 335.32 383.217C334.085 379.439 332.396 376.978 331.599 374.071C330.803 371.165 331.217 365.748 329.613 363.252C328.672 361.787 327.141 360.757 325.678 359.867C324.475 359.136 321.844 358.173 320.616 357.475C319.289 356.721 318.714 355.985 317.925 356.875L319.341 358.625C321.553 361.686 320.936 362.134 320.883 363.764C320.828 365.463 321.395 367.262 321.705 368.953C320.132 366.969 319.489 365.235 317.772 365.54C316.165 365.825 315.85 365.761 313.389 368.069C310.928 370.379 310.317 371.266 310.424 371.995Z" fill="black"/>
<path opacity="0.3" d="M331.582 399.398C334.747 395.34 336.554 386.996 335.32 383.217C334.874 381.851 334.368 380.661 333.866 379.556C333.919 379.811 333.995 380.072 334.03 380.29C334.107 380.778 334.171 381.269 334.218 381.761C334.4 383.654 334.393 385.717 333.591 387.482C332.877 389.052 331.232 392.992 329.111 393.079C327.91 393.128 326.896 391.954 326.434 390.611C326.239 390.044 325.917 388.515 325.917 388.515C325.917 388.515 322.787 389.19 320.405 390.765C317.329 392.8 317.441 393.25 317.441 393.25C317.57 393.945 317.709 395.125 317.541 395.95C317.373 396.777 316.905 398.112 316.396 398.64C316.15 398.895 315.884 399.095 315.613 399.268C315.739 402.174 316.5 404.46 319.345 406.443C321.31 407.681 325.386 407.341 331.582 399.398Z" fill="black"/>
<path d="M314.992 382.708C315.792 386.618 315.861 389.93 315.779 392.782C316.937 396.009 317.952 395.913 318.09 394.242C318.229 392.561 316.001 385.629 314.342 379.895C314.596 380.846 314.807 381.799 314.992 382.708Z" fill="#37474F"/>
<path d="M322.662 362.499C322.848 360.927 322.355 359.311 321.428 357.887C321.125 357.744 320.841 357.604 320.615 357.476C319.288 356.722 318.713 355.986 317.924 356.876L319.34 358.627C321.552 361.688 320.935 362.136 320.882 363.766C320.827 365.465 321.394 367.263 321.704 368.955C322.988 374.427 324.161 376.255 324.766 381.424C325.372 386.593 324.336 390.067 325.066 390.36C325.796 390.653 327.271 390.066 327.539 385.923C327.806 381.78 325.979 374.819 324.689 371.521C323.4 368.221 322.4 364.709 322.662 362.499Z" fill="#37474F"/>
<path d="M326.283 388.877C326.213 388.948 326.123 389 326.019 389.021C322.391 389.768 320.457 390.68 317.756 393.861C317.564 394.071 317.248 394.105 317.029 393.921C316.812 393.737 316.785 393.411 316.969 393.194C319.823 389.834 321.951 388.805 325.81 388.011C326.088 387.954 326.361 388.133 326.419 388.412C326.456 388.587 326.399 388.76 326.283 388.877Z" fill="#EBEBEB"/>
<path d="M325.629 384.567C325.561 384.637 325.472 384.688 325.371 384.712C321.618 385.58 319.534 386.644 316.668 389.994C316.452 390.236 316.143 390.242 315.922 390.052C315.701 389.862 315.674 389.527 315.864 389.306C318.889 385.778 321.155 384.601 325.134 383.68C325.418 383.614 325.703 383.791 325.769 384.076C325.809 384.26 325.751 384.442 325.629 384.567Z" fill="#EBEBEB"/>
<path d="M325.72 379.82C325.645 379.896 325.548 379.953 325.435 379.979C321.296 380.939 318.867 382.223 315.708 385.916C315.51 386.156 315.13 386.189 314.885 385.979C314.641 385.769 314.612 385.401 314.822 385.156C318.149 381.275 320.786 379.859 325.173 378.842C325.487 378.769 325.8 378.965 325.873 379.279C325.919 379.481 325.855 379.682 325.72 379.82Z" fill="#EBEBEB"/>
<path d="M325.032 375.765C324.959 375.84 324.863 375.895 324.753 375.921C320.695 376.859 318.345 378.092 315.24 381.72C315.042 381.95 314.674 381.988 314.434 381.782C314.194 381.577 314.166 381.216 314.372 380.976C317.629 377.168 320.195 375.802 324.496 374.807C324.803 374.736 325.11 374.928 325.182 375.236C325.228 375.433 325.165 375.63 325.032 375.765Z" fill="#EBEBEB"/>
<path d="M323.545 371.816C323.472 371.891 323.376 371.946 323.266 371.972C319.208 372.913 316.86 374.142 313.753 377.772C313.55 378.007 313.187 378.04 312.947 377.834C312.707 377.629 312.679 377.268 312.885 377.028C316.148 373.218 318.707 371.854 323.008 370.857C323.315 370.786 323.623 370.978 323.695 371.286C323.74 371.484 323.677 371.681 323.545 371.816Z" fill="#EBEBEB"/>
<path d="M313.449 358.176L302.707 366.957L296.633 370.768L303.567 383.881L323.106 374.527L313.449 358.176Z" fill="#C8856A"/>
<path d="M335.336 299.532C335.336 299.532 296.243 293.053 279.514 293.159C262.444 293.267 260.859 306.085 265.13 313.935C273.309 328.966 301.747 360.843 301.747 360.843C301.747 360.843 311.299 356.468 314.234 348.204L307.746 333.33L328.449 339.922L330.837 337.012L335.336 299.532Z" fill="#455A64"/>
<path d="M304.342 320.663C308.607 327.021 311.281 331.736 312.961 334.99L307.746 333.329C301.868 319.325 300.662 315.243 291.269 308.681C291.269 308.681 298.008 311.221 304.342 320.663Z" fill="#37474F"/>
<path d="M335.336 299.532L395.61 310.582C395.61 310.582 400.384 332.795 395.77 346.675C391.256 360.254 377.869 364.146 371.427 364.644C362.213 365.356 351.515 362.507 351.515 362.507C351.515 362.507 346.207 366.661 340.822 368.802C335.436 370.942 311.865 380.816 311.865 380.816C311.865 380.816 305.244 375.212 305.902 363.533L330.837 337.012L335.336 299.532Z" fill="#455A64"/>
<path d="M311.865 380.815C311.865 380.815 310.586 380.223 308.752 376.756C314.846 375.318 334.918 367.462 341.403 364.714C352.942 359.823 356.504 354.657 356.504 354.657C356.504 354.657 356.583 358.093 351.514 362.507C351.514 362.507 346.206 366.661 340.821 368.802C335.436 370.942 311.865 380.815 311.865 380.815Z" fill="#37474F"/>
<path d="M363.849 360.296C369.614 361.223 385.142 358.366 390.186 347.424C395.125 336.712 393.461 323.928 392.36 312.928L394.222 313.364L397.489 314.25C398.351 324.025 399.313 335.581 396.46 346.533C392.854 360.381 377.868 364.145 371.425 364.643C362.211 365.355 351.513 362.506 351.513 362.506L354.577 357.771C354.577 357.771 358.045 359.363 363.849 360.296Z" fill="#37474F"/>
<path d="M328.158 339.861C328.158 339.861 329.244 338.567 331.524 335.893C333.804 333.219 337.484 328.151 346.946 328.515C356.408 328.879 374.598 330.517 374.598 330.517C374.598 330.517 355.624 327.287 349.074 326.195C342.523 325.103 338.157 325.862 334.421 329.175C330.685 332.488 324.891 338.79 324.891 338.79L328.158 339.861Z" fill="#37474F"/>
<path d="M340.837 327.73C340.837 327.73 336.093 322.819 336.411 314.596C336.411 314.596 334.143 323.232 337.767 329.503L340.837 327.73Z" fill="#37474F"/>
<path d="M272.006 377.6C267.408 379.412 264.568 381.238 262.444 384.014C260.32 386.79 259.672 389.602 261.689 392.965C263.707 396.328 267.415 400.276 271.817 400.019C276.22 399.761 278.93 398.664 283.015 396.449L272.006 377.6Z" fill="#263238"/>
<path d="M308.751 381.49C308.815 382.867 303.008 385.615 296.974 388.493C290.507 391.579 288.915 393.588 283.635 396.185C277.603 399.154 275.311 399.325 270.629 398.024C265.947 396.724 260.171 390.022 264.194 383.86C267.474 378.836 271.723 377.456 278.17 375.76C284.835 374.007 288.382 372.779 293.252 370.887C297.907 369.079 301.745 365.83 302.707 366.957C302.042 367.28 297.171 370.286 298.092 371.104C298.317 371.525 299.014 371.394 300.212 370.899C300.734 370.683 301.339 370.552 301.881 370.818C302.428 371.087 302.778 371.695 303.085 372.266C303.832 373.653 303.928 374.506 304.545 375.96C304.905 376.81 304.755 376.318 305.091 377.177C305.467 378.141 306.184 379.594 306.09 380.476C306.033 381.007 305.647 381.177 305.237 381.437C304.828 381.696 304.251 382.011 303.865 382.308C303.711 382.427 303.434 382.822 303.522 383.024C303.668 383.361 304.509 383.201 304.858 383.056C305.277 382.881 305.795 382.766 306.221 382.608C306.626 382.459 307.685 381.987 308.751 381.49Z" fill="#36013F"/>
<path opacity="0.4" d="M308.751 381.49C308.815 382.867 303.008 385.615 296.974 388.493C290.507 391.579 288.915 393.588 283.635 396.185C277.603 399.154 275.311 399.325 270.629 398.024C265.947 396.724 260.171 390.022 264.194 383.86C267.474 378.836 271.723 377.456 278.17 375.76C284.835 374.007 288.382 372.779 293.252 370.887C297.907 369.079 301.745 365.83 302.707 366.957C302.042 367.28 297.171 370.286 298.092 371.104C298.317 371.525 299.014 371.394 300.212 370.899C300.734 370.683 301.339 370.552 301.881 370.818C302.428 371.087 302.778 371.695 303.085 372.266C303.832 373.653 303.928 374.506 304.545 375.96C304.905 376.81 304.755 376.318 305.091 377.177C305.467 378.141 306.184 379.594 306.09 380.476C306.033 381.007 305.647 381.177 305.237 381.437C304.828 381.696 304.251 382.011 303.865 382.308C303.711 382.427 303.434 382.822 303.522 383.024C303.668 383.361 304.509 383.201 304.858 383.056C305.277 382.881 305.795 382.766 306.221 382.608C306.626 382.459 307.685 381.987 308.751 381.49Z" fill="black"/>
<path opacity="0.3" d="M285.707 395.187C284.84 395.624 279.364 398.169 277.644 396.643C275.783 394.991 280.176 392.355 280.176 392.355C280.176 392.355 280.846 388.224 275.86 382.148C274.996 382.818 271.395 382.784 271.445 380.664C271.494 378.558 277.528 375.948 277.615 375.909C271.442 377.561 267.379 378.983 264.194 383.861C260.171 390.023 265.947 396.725 270.629 398.025C275.311 399.326 277.603 399.154 283.635 396.186C284.239 395.889 285.176 395.498 285.707 395.187Z" fill="black"/>
<path d="M279.588 391.942C277.304 392.705 278.871 394.781 282.216 394.108C287.231 393.098 291.394 390.254 296.975 388.493C303.009 385.614 309.154 382.934 308.758 381.409C307.678 381.814 305.369 382.776 305.369 382.776C304.916 382.968 303.751 383.402 303.751 383.402C299.178 385.377 294.119 388.553 289.173 389.893C284.814 391.075 281.872 391.179 279.588 391.942Z" fill="#37474F"/>
<path d="M276.193 382.931C278.283 381.721 278.647 380.688 282.747 378.805C286.816 376.935 293.776 372.894 298.059 370.399C299.399 369.664 302.663 366.98 302.708 366.957C301.999 366.149 299.387 366.895 296.774 368.543C294.161 370.19 292.569 371.24 289.978 372.588C284.947 375.611 279.209 377.651 276.336 379.501C273.461 381.351 274.103 384.14 276.193 382.931Z" fill="#37474F"/>
<path d="M275.884 382.375C275.913 382.442 275.954 382.504 276.004 382.56C276.047 382.605 279.317 386.203 279.916 392.678C279.947 392.997 280.203 393.249 280.488 393.244C280.774 393.24 280.981 392.979 280.952 392.661C280.311 385.733 276.884 381.973 276.695 381.771C276.481 381.541 276.152 381.529 275.961 381.748C275.815 381.913 275.792 382.164 275.884 382.375Z" fill="#F0F0F0"/>
<path d="M279.938 379.415C279.964 379.476 279.999 379.532 280.044 379.584C280.089 379.636 284.011 384.372 284.888 391.528C284.931 391.843 285.19 392.089 285.475 392.075C285.76 392.06 285.96 391.79 285.92 391.473C284.989 383.905 280.96 379.053 280.763 378.825C280.554 378.587 280.225 378.563 280.026 378.772C279.871 378.937 279.842 379.196 279.938 379.415Z" fill="#F0F0F0"/>
<path d="M288.869 391.103C288.957 391.306 289.143 391.455 289.353 391.468C289.641 391.483 289.866 391.24 289.856 390.924C289.615 383.599 284.898 376.725 284.675 376.487C284.46 376.255 284.132 376.245 283.941 376.464C283.752 376.682 283.778 377.048 283.985 377.276C284.034 377.33 288.596 384.045 288.813 390.863C288.816 390.947 288.836 391.027 288.869 391.103Z" fill="#F0F0F0"/>
<path d="M292.618 388.707C292.705 388.906 292.886 389.053 293.093 389.07C293.382 389.092 293.611 388.854 293.605 388.538C293.466 380.441 288.372 375.056 288.144 374.839C287.917 374.623 287.59 374.635 287.413 374.867C287.236 375.1 287.278 375.47 287.504 375.679C287.555 375.726 292.432 380.92 292.563 388.455C292.564 388.545 292.584 388.63 292.618 388.707Z" fill="#F0F0F0"/>
<path d="M297.477 386.653C297.562 386.849 297.74 386.996 297.945 387.015C298.233 387.042 298.465 386.808 298.464 386.492C298.432 378.873 293.076 372.976 292.835 372.738C292.614 372.515 292.285 372.52 292.103 372.747C291.92 372.972 291.949 373.337 292.176 373.559C292.231 373.615 297.394 379.319 297.423 386.394C297.423 386.486 297.442 386.573 297.477 386.653Z" fill="#EBEBEB"/>
<path d="M269.594 247.954L305.965 252.256C305.965 252.256 316.032 247.749 322.291 245.033C343.978 235.623 347.343 233.892 354.353 233.987L342.518 258.849C342.518 258.849 328.437 264.814 315.467 269.693C308.71 272.235 308.794 272.678 301.33 270.767C295.781 269.346 292.912 268.601 284.851 266.412C274.971 263.729 268.299 262.145 268.299 262.145L269.594 247.954Z" fill="#C8856A"/>
<path d="M273.762 248.763C267.117 247.426 264.541 247.475 262.714 243.349C260.886 239.223 260.165 238.439 259.423 237.655C258.682 236.871 253.872 234.119 251.825 233.021C250.307 232.207 248.924 232.293 246.163 231.697C244.786 231.4 243.21 230.956 241.854 230.561C240.777 230.247 239.577 229.587 238.433 229.611C236.903 229.643 237.246 231.803 238.301 232.835C239.433 233.943 241.103 234.62 242.576 235.211C243.684 235.656 246.314 236.675 246.314 236.675C245.915 237.579 244.886 239.213 244.908 240.326C244.929 241.4 245.101 241.876 247.086 243.786C247.086 243.786 246.205 244.74 246.422 245.66C246.639 246.58 247.362 247.344 247.954 247.97C247.954 247.97 247.402 248.602 247.402 249.48C247.402 250.358 248.906 252.033 250.435 253.334C251.995 255.031 253.322 257.633 254.764 258.975C256.206 260.316 258.277 260.718 261.7 260.989C265.123 261.259 273.935 263.447 273.935 263.447C273.935 263.447 280.199 250.058 273.762 248.763Z" fill="#C8856A"/>
<path d="M257.109 239.833C255.126 239.338 253.554 238.545 252.387 237.126C251.22 235.707 250.023 234.056 249.479 234.275C248.565 234.644 247.628 237.138 249.322 239.619C250.938 241.984 253.499 244.451 253.918 245.162C254.338 245.873 254.484 247.918 254.541 249.51C254.598 251.102 255.786 254.853 260.364 256.251C260.364 256.251 257.971 256.407 255.463 254.104C252.954 251.801 253.394 248.158 253.131 246.628C252.869 245.098 252.815 244.789 250.921 242.809C249.027 240.829 246.973 238.701 247.779 235.585C248.585 232.469 249.913 233.206 250.573 233.833C251.234 234.459 253.966 239.126 257.109 239.833Z" fill="#AF6152"/>
<path d="M246.313 236.676L248.122 237.11L247.779 237.781C247.779 237.781 246.237 237.515 245.23 238.936C245.47 238.344 245.985 237.343 246.313 236.676Z" fill="#AF6152"/>
<path d="M247.084 243.786C247.716 244.436 249.799 246.328 250.215 246.716C250.631 247.104 251.481 246.545 251.611 245.396C251.741 244.247 251.584 243.564 251.055 242.695C251.055 242.695 252.199 243.928 252.085 245.409C251.97 246.889 251.18 247.424 250.584 247.5C249.986 247.574 248.444 245.163 247.084 243.786Z" fill="#AF6152"/>
<path d="M247.952 247.971C248.419 248.465 249.173 249.032 250.493 250.37C251.257 251.145 251.716 251.667 252.262 251.337C252.807 251.007 253.262 249.35 252.621 248.277C251.979 247.204 251.312 246.555 251.312 246.555L251.679 246.154C251.679 246.154 253.148 247.538 253.512 249.007C253.876 250.476 253.036 252.125 252.284 252.036C251.533 251.947 251.119 251.497 250.069 250.344C249.02 249.192 247.952 247.971 247.952 247.971Z" fill="#AF6152"/>
<path d="M251.884 251.664C252.153 252.016 252.341 253 251.696 253.318C251.051 253.635 250.434 253.336 250.434 253.336C250.434 253.336 251.094 254.055 251.932 253.635C252.705 253.247 252.72 252.268 252.541 251.525L251.884 251.664Z" fill="#AF6152"/>
<path d="M395.926 274.425C394.575 254.706 394.627 246.185 392.676 239.731C389.676 238.843 383.227 237.052 383.227 237.052C383.227 237.052 367.694 236.385 362.134 234.089L354.353 233.791C350.124 237.852 339.009 246.505 335.401 254.713C332.986 260.208 333.052 268.277 339.64 273.745C339.55 279.608 340.632 287.004 340.632 287.004C340.632 287.004 338.621 293.294 336.111 299.477C337.047 309.182 351.197 316.45 368.471 321.131C387.011 326.155 398.351 318.652 398.351 318.652C398.351 318.652 397.265 293.964 395.926 274.425Z" fill="#F4D35E"/>
<path opacity="0.6" d="M395.926 274.425C394.575 254.706 394.627 246.185 392.676 239.731C389.676 238.843 383.227 237.052 383.227 237.052C383.227 237.052 367.694 236.385 362.134 234.089L354.353 233.791C350.124 237.852 339.009 246.505 335.401 254.713C332.986 260.208 333.052 268.277 339.64 273.745C339.55 279.608 340.632 287.004 340.632 287.004C340.632 287.004 338.621 293.294 336.111 299.477C337.047 309.182 351.197 316.45 368.471 321.131C387.011 326.155 398.351 318.652 398.351 318.652C398.351 318.652 397.265 293.964 395.926 274.425Z" fill="#F4D35E"/>
<path opacity="0.3" d="M355.227 277.185C355.227 277.185 359.899 283.465 369.73 282.778C379.873 282.069 382.187 273.786 382.187 273.786C382.187 273.786 382.159 284.764 370.041 285.614C358.868 286.398 355.227 277.185 355.227 277.185Z" fill="#F4D35E"/>
<path d="M366.873 331.857V333C366.873 334.153 366.257 335.222 365.262 335.798L334.473 353.516C333.975 353.804 333.416 353.946 332.856 353.946C332.302 353.946 331.742 353.805 331.245 353.516L274.765 320.909C273.764 320.332 273.148 319.264 273.148 318.111V317.325L332.856 351.798L366.873 331.857Z" fill="#EBEBEB"/>
<path d="M273.148 317.324L306.637 297.991C307.233 297.647 307.966 297.647 308.562 297.991L366.66 331.538C366.945 331.703 366.945 332.114 366.66 332.279L332.857 351.798L273.148 317.324Z" fill="#FAFAFA"/>
<path d="M333.165 348.955L351.227 338.537L298.412 308.044L280.255 318.407L333.165 348.955Z" fill="#E0E0E0"/>
<path d="M342.042 319.975L341.709 320.167L332.856 325.277L317.112 316.188L316.784 316.001L325.971 310.698L342.042 319.975Z" fill="#E0E0E0"/>
<path d="M341.709 320.167L332.856 325.277L317.112 316.188L325.971 311.077L341.709 320.167Z" fill="#E6E6E6"/>
<path d="M332.856 351.796V353.944C332.302 353.944 331.742 353.803 331.245 353.514L274.765 320.907C273.764 320.33 273.148 319.262 273.148 318.109V317.323L332.856 351.796Z" fill="#EBEBEB"/>
<g opacity="0.5">
<path d="M332.856 351.796V353.944C332.302 353.944 331.742 353.803 331.245 353.514L274.765 320.907C273.764 320.33 273.148 319.262 273.148 318.109V317.323L332.856 351.796Z" fill="#E0E0E0"/>
</g>
<path d="M331.946 352.273C330.877 352.686 329.662 352.607 328.65 352.018L272.418 319.552C271.429 318.981 270.75 318.003 270.558 316.878L264.402 280.167C264.368 279.958 264.351 279.748 264.351 279.539C264.351 278.516 264.758 277.538 265.482 276.82L323.918 310.563C324.647 310.987 325.151 311.711 325.292 312.542L331.946 352.273Z" fill="#36013F"/>
<g opacity="0.7">
<path d="M331.946 352.273C330.877 352.686 329.662 352.607 328.65 352.018L272.418 319.552C271.429 318.981 270.75 318.003 270.558 316.878L264.402 280.167C264.368 279.958 264.351 279.748 264.351 279.539C264.351 278.516 264.758 277.538 265.482 276.82L323.918 310.563C324.647 310.987 325.151 311.711 325.292 312.542L331.946 352.273Z" fill="white"/>
</g>
<path d="M332.856 351.798L332.472 352.018C332.302 352.114 332.127 352.199 331.946 352.273L325.292 312.543C325.151 311.712 324.647 310.988 323.918 310.564L265.482 276.821C265.708 276.595 265.974 276.397 266.262 276.227L324.817 310.033C325.546 310.457 326.049 311.181 326.191 312.012L332.856 351.798Z" fill="#FAFAFA"/>
<path d="M300.276 318.383C299.864 315.925 297.326 312.66 294.608 311.091C291.89 309.522 290.02 310.242 290.433 312.7C290.845 315.158 293.383 318.423 296.101 319.992C298.819 321.562 300.688 320.841 300.276 318.383Z" fill="#36013F"/>
<path d="M413.178 295.693C412.578 291.741 406.74 254.994 405.004 250.041C403.122 244.673 401.066 242.165 392.751 239.73C384.988 245.038 386.517 262.525 387.52 266.543L393.582 295.42C393.582 295.42 384.938 299.531 377.967 302.744C372.007 305.49 367.828 308.614 360.846 309.302C353.863 309.99 352.546 309.612 346.573 312.217C344.563 313.322 342.375 314.202 340.556 315.609C338.448 317.824 335.849 319.522 333.595 321.584C331.894 322.723 333.436 323.554 334.779 323.66C338.493 323.79 341.495 320.921 344.829 319.744C344.431 320.925 344.214 322.182 344.183 323.428C344.158 324.429 343.914 325.64 344.772 326.391C345.255 326.814 346.271 327.077 346.85 327.297C346.85 327.297 346.845 327.858 347.247 328.272C347.657 328.695 348.466 328.786 349.02 328.766C349.454 328.751 350.039 328.633 350.039 328.633C350.039 329.3 350.682 329.905 351.139 330.1C352.694 330.765 355.053 330.467 355.407 330.331C355.618 330.25 357.224 329.426 357.695 329.192C358.377 328.853 358.983 328.666 359.286 328.233C359.645 327.719 358.692 326.497 357.875 326.35C357 326.15 355.709 326.394 355.152 326.472C355.514 325.701 355.825 325.031 355.996 324.147C356.76 322.973 362.083 324.287 366.847 323.558C370.445 323.007 372.597 320.351 374.219 319.647C384.982 314.974 399.201 312.146 406.238 310.067C414.923 307.502 414.298 303.075 413.178 295.693Z" fill="#C8856A"/>
<path d="M344.828 319.744C345.201 317.79 345.999 315.881 346.849 314.975C344.988 315.61 343.635 320.237 343.635 320.237L344.828 319.744Z" fill="#AF6152"/>
<path d="M346.849 327.296C346.669 326.32 346.737 325.321 346.816 324.342C346.9 323.359 347.062 322.387 347.255 321.422C347.465 320.469 347.671 319.482 348.112 318.571C348.548 317.685 349.074 316.771 349.93 316.243C349.569 316.575 349.321 316.997 349.099 317.423C348.867 317.845 348.673 318.286 348.516 318.738C348.192 319.634 348.01 320.58 347.811 321.537C347.607 322.488 347.432 323.445 347.247 324.401C347.079 325.359 346.903 326.315 346.849 327.296Z" fill="#AF6152"/>
<path d="M350.037 328.633C349.931 327.668 349.996 326.693 350.094 325.732C350.192 324.768 350.373 323.816 350.585 322.872C350.81 321.931 351.068 320.994 351.431 320.091C351.805 319.213 352.164 318.232 352.962 317.634C352.625 317.984 352.465 318.443 352.288 318.878C352.119 319.321 351.971 319.773 351.843 320.231C351.585 321.147 351.346 322.07 351.137 323.001C350.707 324.86 350.302 326.722 350.037 328.633Z" fill="#AF6152"/>
<path d="M357.873 326.35C357.437 326.371 357.037 326.384 356.67 326.497C356.283 326.581 356.004 326.77 355.516 326.916L355.719 326.604C355.743 326.843 355.692 327.001 355.629 327.178C355.568 327.349 355.458 327.493 355.346 327.621C355.12 327.878 354.83 328.051 354.521 328.136C354.725 327.889 354.901 327.646 355.026 327.401C355.086 327.276 355.12 327.147 355.152 327.025C355.18 326.91 355.182 326.76 355.174 326.694L355.148 326.472L355.377 326.382C355.677 326.264 356.062 326.188 356.512 326.167C356.974 326.152 357.505 326.112 357.873 326.35Z" fill="#AF6152"/>
<path d="M384.443 183.167C391.813 180.872 399.114 189.732 398.232 196.873C401.415 199.315 403.209 207.964 399.068 212.254C401.486 216.706 397.957 225.413 391.877 226.218C392.763 230.08 387.705 235.767 381.565 236.028C373.344 236.378 375.381 233.458 377.021 224.411C377.817 220.021 384.443 183.167 384.443 183.167Z" fill="#263238"/>
<path d="M358.336 247.679C351.193 246.529 354.563 242.041 359.655 236.84L370.944 233.671L380.138 232.718C380.083 235.853 381.971 236.52 383.776 237.206C378.911 242.305 366.864 249.052 358.336 247.679Z" fill="#C8856A"/>
<path d="M361.69 236.268C358.681 243.174 353.038 242.954 350.854 242.538C349.961 246.868 346.323 248.992 342.55 250.568C343.395 254.852 340.282 257.663 337.19 259.963C338.224 261.78 338.523 262.993 337.947 265.383C337.371 267.773 333.671 271.953 334.374 274.783C330.159 270.306 330.177 264.222 333.79 259.432C333.09 255.239 332.593 251.052 336.491 248.413C335.507 243.021 338.087 239.049 343.538 238.136C343.659 233.984 346.37 231.528 350.94 230.807C349.95 223.583 357.328 220.717 361.911 220.574C361.851 223.714 362.325 230.444 362.189 233.582L361.69 236.268Z" fill="#263238"/>
<path d="M354.246 177.986C363.304 173.677 378.003 175.54 380.195 181.952C384.128 181.338 387.241 183.697 389.766 188.653C392.35 193.726 393.654 201.434 390.364 209.583C386.852 218.285 382.518 222.733 380.263 224.899L380.004 214.245C379.05 214.17 378.145 214.005 377.346 213.729C372.627 212.098 357.101 205.498 353.47 199.166C353.47 199.166 346.34 202.992 346.328 202.98C338.821 195.966 341.855 183.88 354.246 177.986Z" fill="#37474F"/>
<path d="M347.527 194.231C347.053 196.001 345.517 199.891 345.776 212.005C346.023 223.561 349.49 227.257 352.129 228.779C354.129 229.933 358.429 230.37 361.706 230.058L361.68 239.903C361.68 239.903 360.996 241.631 368.089 242.212C378.852 243.095 380.061 237.448 380.061 237.448L380.342 219.943C380.342 219.943 383.227 221.796 386.555 219.005C388.534 217.345 390.195 212.348 387.712 209.703C385.229 207.058 382.537 207.788 380.339 211.522C379.524 212.906 377.198 212.622 376.777 210.806C375.759 206.418 377.149 201.865 371.124 199.285C367.61 197.78 363.269 195.725 359.104 189.722C355.145 192.849 349.868 194.582 347.527 194.231Z" fill="#C8856A"/>
<path d="M366.263 207.2C366.263 208.216 365.261 209.218 364.246 209.218C363.23 209.218 362.407 208.394 362.407 207.379C362.407 206.363 363.231 205.54 364.246 205.54C365.262 205.539 366.263 206.184 366.263 207.2Z" fill="#263238"/>
<path d="M352.632 206.642C352.632 207.658 351.808 208.481 350.793 208.481C349.777 208.481 348.728 207.432 348.728 206.416C348.728 205.4 349.777 204.802 350.793 204.802C351.809 204.803 352.632 205.626 352.632 206.642Z" fill="#263238"/>
<path d="M363.228 218.28L357.62 219.717C357.986 221.319 359.538 222.296 361.086 221.9C362.636 221.503 363.595 219.883 363.228 218.28Z" fill="#AF6152"/>
<path d="M362.835 219.418C361.279 219.229 359.867 220.326 359.654 221.873C360.108 221.999 360.595 222.025 361.087 221.9C362.232 221.606 363.051 220.643 363.254 219.513C363.117 219.474 362.98 219.435 362.835 219.418Z" fill="#FFA8A7"/>
<path d="M348.035 203.309L351.838 201.996C351.513 200.924 350.397 200.348 349.347 200.711C348.297 201.074 347.709 202.237 348.035 203.309Z" fill="#263238"/>
<path d="M364.229 202.025L367.6 204.221C368.247 203.306 368.016 202.072 367.084 201.466C366.154 200.86 364.875 201.11 364.229 202.025Z" fill="#263238"/>
<path d="M358.681 204.374L357.427 216.311L351.194 214.218C353.152 210.881 355.624 206.682 358.681 204.374Z" fill="#AF6152"/>
<path d="M361.706 230.057C366.277 229.211 374.821 227.135 376.313 220.574C376.313 220.574 376.705 224.082 373.091 227.63C369.31 231.341 361.707 232.717 361.707 232.717V230.057H361.706Z" fill="#AF6152"/>
<path d="M368.598 160.184L371.859 154.052L369.235 146.477V141.84L377.265 146.477V151.114L373.813 157.094C373.754 157.195 373.671 157.261 373.579 157.302L373.581 157.305L368.598 160.184Z" fill="#36013F"/>
<path opacity="0.2" d="M368.598 160.184L371.859 154.052L369.235 146.477V141.84L377.265 146.477V151.114L373.813 157.094C373.754 157.195 373.671 157.261 373.579 157.302L373.581 157.305L368.598 160.184Z" fill="black"/>
<path d="M350.62 96.3419C350.62 94.8069 351.698 92.9399 353.028 92.1719L354.989 91.0399C356.318 90.2719 358.474 90.2719 359.804 91.0399L389.869 108.429C391.199 109.197 392.277 111.064 392.277 112.599V154.984C392.277 156.52 391.199 158.387 389.869 159.154L387.909 160.286C386.579 161.054 384.423 161.054 383.093 160.286L372.224 154.034L368.779 160.002C368.559 160.384 367.992 160.329 367.848 159.913L364.206 149.401L353.028 142.896C351.698 142.129 350.621 140.262 350.621 138.726L350.62 96.3419Z" fill="#36013F"/>
<path opacity="0.2" d="M392.276 154.984C392.276 156.52 391.198 158.387 389.868 159.154L387.908 160.286C386.706 160.98 384.836 161.04 383.504 160.48C384.637 160.909 385.5 160.269 385.5 158.896V116.511C385.5 115.743 385.23 114.893 384.795 114.138L391.571 110.226C392.007 110.98 392.276 111.831 392.276 112.599V154.984Z" fill="black"/>
<path opacity="0.3" d="M350.699 95.6578C350.98 94.6358 351.912 94.3098 353.024 94.9498L383.094 112.343C383.757 112.725 384.363 113.376 384.79 114.14L391.563 110.231C391.125 109.467 390.529 108.816 389.867 108.434L359.808 91.0408C358.472 90.2768 356.315 90.2768 354.989 91.0408L353.023 92.1758C351.889 92.8278 350.935 94.2878 350.699 95.6578Z" fill="white"/>
<path d="M376.693 131.492L370.526 135.53V113.596L366.52 111.279V133.734L361.248 125.174L358.419 127.312L367.92 142.163L378.628 135.145L376.693 131.492Z" fill="#FAFAFA"/>
</svg>
