<svg width="414" height="443" viewBox="0 0 414 443" fill="none" xmlns="http://www.w3.org/2000/svg">
<path opacity="0.7" d="M35.285 137.971C35.285 137.971 7.40799 209.959 46.582 282.474C85.756 354.99 166.461 393.276 231.051 426.022C295.641 458.768 362.712 442.821 394.585 389.184C426.458 335.547 382.74 297.256 382.688 220.766C382.637 144.276 394.135 124.024 352.725 59.4022C311.315 -5.22081 209.666 -19.5228 132.825 28.4062C55.985 76.3352 35.285 137.971 35.285 137.971Z" fill="white"/>
<path d="M2.46099 254.242C-1.92401 233.663 -0.716013 211.899 8.24899 189.737C19.8 161.18 44.615 140.891 72.42 129.051C112.827 111.845 152.493 111.518 185.337 77.8031C195.467 67.4041 203.97 55.4931 214.317 45.3091C244.837 15.2681 289.509 18.9151 322.865 42.7341C392.451 92.4241 417.479 190.836 413.61 272.198C411.873 308.711 394.442 342.693 366.851 366.648C304.45 420.829 198.494 411.715 126.825 383.434C73.379 362.343 15.012 313.144 2.46099 254.242Z" fill="#F4D35E"/>
<path opacity="0.7" d="M2.46099 254.242C-1.92401 233.663 -0.716013 211.899 8.24899 189.737C19.8 161.18 44.615 140.891 72.42 129.051C112.827 111.845 152.493 111.518 185.337 77.8031C195.467 67.4041 203.97 55.4931 214.317 45.3091C244.837 15.2681 289.509 18.9151 322.865 42.7341C392.451 92.4241 417.479 190.836 413.61 272.198C411.873 308.711 394.442 342.693 366.851 366.648C304.45 420.829 198.494 411.715 126.825 383.434C73.379 362.343 15.012 313.144 2.46099 254.242Z" fill="white"/>
<path d="M264.864 368.685C264.864 372.915 263.824 376.895 261.984 380.385H256.554C256.394 380.385 256.234 380.405 256.074 380.435C255.124 380.655 254.414 381.495 254.414 382.525V389.105C250.274 392.105 245.174 393.875 239.674 393.875C231.314 393.875 223.904 389.805 219.334 383.535C216.284 379.375 214.484 374.235 214.484 368.685C214.484 354.775 225.764 343.495 239.674 343.495C253.584 343.495 264.864 354.775 264.864 368.685Z" stroke="#36013F" stroke-miterlimit="10" stroke-linecap="round" stroke-linejoin="round"/>
<path d="M245.824 377.965C249.784 378.455 253.354 379.415 256.074 380.435C255.124 380.655 254.414 381.495 254.414 382.525V389.105C250.274 392.105 245.174 393.875 239.674 393.875C231.314 393.875 223.904 389.805 219.334 383.535C219.474 383.285 219.624 383.035 219.784 382.785C220.724 381.255 226.394 378.815 234.434 377.945C235.024 376.755 235.034 375.195 234.894 373.905C234.864 373.675 234.834 373.465 234.804 373.255C234.284 372.765 233.874 372.275 233.694 371.865C233.344 371.045 232.984 369.955 232.664 368.695C232.654 369.025 232.604 369.275 232.504 369.375C231.914 369.925 231.374 368.975 231.294 368.145C231.214 367.305 230.184 365.865 229.944 365.045C229.704 364.225 230.224 363.315 230.654 362.995C230.824 362.885 231.044 362.935 231.264 363.055C230.964 361.745 230.744 360.135 230.924 358.635C231.324 355.285 233.444 353.985 233.444 353.985C233.444 353.985 234.404 351.095 240.054 351.115C246.144 351.145 246.754 354.435 246.754 354.435C246.754 354.435 249.904 356.535 248.664 363.045C248.874 362.935 249.074 362.885 249.234 362.995C249.674 363.315 250.184 364.225 249.944 365.045C249.714 365.865 248.674 367.305 248.594 368.145C248.514 368.975 247.974 369.925 247.384 369.375C247.324 369.315 247.294 369.205 247.264 369.065C246.954 370.305 246.594 371.395 246.244 372.195C246.044 372.675 245.584 373.195 244.994 373.695C244.864 374.785 244.934 375.655 245.094 376.345C245.274 377.095 245.564 377.615 245.824 377.965Z" stroke="#36013F" stroke-miterlimit="10" stroke-linecap="round" stroke-linejoin="round"/>
<path d="M264.56 392.671H256.55C255.368 392.671 254.41 391.713 254.41 390.531V382.521C254.41 381.339 255.368 380.381 256.55 380.381H264.56C265.742 380.381 266.7 381.339 266.7 382.521V390.531C266.7 391.713 265.742 392.671 264.56 392.671Z" stroke="#36013F" stroke-miterlimit="10" stroke-linecap="round" stroke-linejoin="round"/>
<path d="M263.61 385.829H261.252V383.47H259.858V385.829H257.499V387.223H259.858V389.582H261.252V387.223H263.61V385.829Z" fill="#36013F"/>
<path d="M107.844 165.975C107.844 171.845 106.394 177.375 103.844 182.235H95.4439C94.2639 182.235 93.3039 183.195 93.3039 184.375V194.375C87.5439 198.545 80.4639 201.005 72.8139 201.005C61.1939 201.005 50.8939 195.345 44.5239 186.625C40.2939 180.835 37.7939 173.695 37.7939 165.975C37.7939 146.635 53.4739 130.955 72.8139 130.955C92.1539 130.955 107.844 146.635 107.844 165.975Z" stroke="#36013F" stroke-miterlimit="10" stroke-linecap="round" stroke-linejoin="round"/>
<path d="M97.1359 178.507L54.9709 186.713C53.4699 187.005 52.0159 186.025 51.7239 184.524L46.3079 156.694C46.0159 155.193 46.9959 153.739 48.4969 153.447L90.6619 145.241C92.1629 144.949 93.6169 145.929 93.9089 147.43L99.3249 175.26C99.6179 176.761 98.6379 178.215 97.1359 178.507Z" stroke="#36013F" stroke-miterlimit="10" stroke-linecap="round" stroke-linejoin="round"/>
<path d="M46.5139 157.755L69.3159 170.172C72.1179 171.698 75.6089 171.018 77.6339 168.553L94.1149 148.491" stroke="#36013F" stroke-miterlimit="10" stroke-linecap="round" stroke-linejoin="round"/>
<path d="M55.2099 183.996L69.3169 170.173" stroke="#36013F" stroke-miterlimit="10" stroke-linecap="round" stroke-linejoin="round"/>
<path d="M95.6669 176.123L77.6349 168.554" stroke="#36013F" stroke-miterlimit="10" stroke-linecap="round" stroke-linejoin="round"/>
<path d="M108.259 199.33H95.4489C94.2669 199.33 93.3089 198.372 93.3089 197.19V184.38C93.3089 183.198 94.2669 182.24 95.4489 182.24H108.259C109.441 182.24 110.399 183.198 110.399 184.38V197.19C110.399 198.372 109.441 199.33 108.259 199.33Z" stroke="#36013F" stroke-miterlimit="10" stroke-linecap="round" stroke-linejoin="round"/>
<path d="M106.103 189.816H102.823V186.536H100.885V189.816H97.6039V191.754H100.885V195.034H102.823V191.754H106.103V189.816Z" fill="#36013F"/>
<path d="M382.999 306.189H351.196L351.811 305.211C354.587 300.806 355.782 295.664 355.758 290.462V290.402C355.758 283.728 361.503 278.405 368.31 279.117C373.427 279.648 377.64 283.739 378.328 288.833C378.413 289.424 378.437 290.004 378.437 290.571C378.352 295.604 379.451 300.589 382.142 304.837L382.999 306.189Z" stroke="#36013F" stroke-miterlimit="10" stroke-linecap="round" stroke-linejoin="round"/>
<path d="M364.523 278.812C363.101 277.39 363.101 275.085 364.523 273.663C365.945 272.241 368.25 272.241 369.672 273.663C371.094 275.085 371.094 277.39 369.672 278.812" stroke="#36013F" stroke-miterlimit="10" stroke-linecap="round" stroke-linejoin="round"/>
<path d="M383.81 309.455H350.384C349.638 309.455 349.032 308.85 349.032 308.103V307.544C349.032 306.798 349.637 306.192 350.384 306.192H383.809C384.555 306.192 385.161 306.797 385.161 307.544V308.103C385.162 308.85 384.556 309.455 383.81 309.455Z" stroke="#36013F" stroke-miterlimit="10" stroke-linecap="round" stroke-linejoin="round"/>
<path d="M367.097 317.713C368.63 317.713 369.873 316.47 369.873 314.937C369.873 313.404 368.63 312.161 367.097 312.161C365.564 312.161 364.321 313.404 364.321 314.937C364.321 316.47 365.564 317.713 367.097 317.713Z" stroke="#36013F" stroke-miterlimit="10" stroke-linecap="round" stroke-linejoin="round"/>
<path d="M397.494 297.565C397.494 302.655 396.244 307.465 394.034 311.685H387.024C385.844 311.685 384.884 312.645 384.884 313.825V322.225C379.884 325.835 373.734 327.965 367.094 327.965C357.014 327.965 348.074 323.055 342.544 315.485C338.864 310.465 336.694 304.275 336.694 297.565C336.694 280.785 350.314 267.165 367.094 267.165C383.884 267.165 397.494 280.785 397.494 297.565Z" stroke="#36013F" stroke-miterlimit="10" stroke-linecap="round" stroke-linejoin="round"/>
<path d="M397.577 326.518H387.024C385.842 326.518 384.884 325.56 384.884 324.378V313.825C384.884 312.643 385.842 311.685 387.024 311.685H397.577C398.759 311.685 399.717 312.643 399.717 313.825V324.378C399.717 325.56 398.758 326.518 397.577 326.518Z" stroke="#36013F" stroke-miterlimit="10" stroke-linecap="round" stroke-linejoin="round"/>
<path d="M395.988 318.26H393.141V315.413H391.459V318.26H388.612V319.942H391.459V322.789H393.141V319.942H395.988V318.26Z" fill="#36013F"/>
<path d="M393.244 48.9953V267.295C393.244 271.135 390.134 274.245 386.294 274.245H162.064C158.224 274.245 155.114 271.135 155.114 267.295V48.9953C155.114 45.1553 158.224 42.0453 162.064 42.0453H386.294C390.134 42.0453 393.244 45.1553 393.244 48.9953Z" fill="white"/>
<mask id="mask0_606_1516" style="mask-type:luminance" maskUnits="userSpaceOnUse" x="155" y="42" width="239" height="233">
<path d="M393.244 48.9953V267.295C393.244 271.135 390.134 274.245 386.294 274.245H162.064C158.224 274.245 155.114 271.135 155.114 267.295V48.9953C155.114 45.1553 158.224 42.0453 162.064 42.0453H386.294C390.134 42.0453 393.244 45.1553 393.244 48.9953Z" fill="white"/>
</mask>
<g mask="url(#mask0_606_1516)">
<path d="M356.371 255.903H301.175C293.986 255.903 288.157 250.075 288.157 242.885C288.157 235.696 293.985 229.867 301.175 229.867H356.371C363.56 229.867 369.389 235.695 369.389 242.885C369.389 250.074 363.561 255.903 356.371 255.903Z" fill="#F4D35E" stroke="#36013F" stroke-miterlimit="10" stroke-linecap="round" stroke-linejoin="round"/>
<path d="M314.642 249.261H312.534L312.174 246.848H309.609L309.249 249.261H307.33L309.458 235.963H312.517L314.642 249.261ZM309.874 245.043H311.888L310.9 238.318H310.862L309.874 245.043Z" fill="#36013F"/>
<path d="M321.656 244.302V246.07C321.656 248.197 320.592 249.413 318.54 249.413C316.488 249.413 315.425 248.197 315.425 246.07V239.155C315.425 237.027 316.489 235.811 318.54 235.811C320.592 235.811 321.656 237.027 321.656 239.155V240.446H319.68V239.022C319.68 238.072 319.262 237.711 318.597 237.711C317.932 237.711 317.514 238.072 317.514 239.022V246.203C317.514 247.152 317.932 247.495 318.597 247.495C319.262 247.495 319.68 247.152 319.68 246.203V244.303H321.656V244.302Z" fill="#36013F"/>
<path d="M328.991 244.302V246.07C328.991 248.197 327.927 249.413 325.875 249.413C323.823 249.413 322.76 248.197 322.76 246.07V239.155C322.76 237.027 323.823 235.811 325.875 235.811C327.927 235.811 328.991 237.027 328.991 239.155V240.446H327.015V239.022C327.015 238.072 326.597 237.711 325.932 237.711C325.267 237.711 324.849 238.072 324.849 239.022V246.203C324.849 247.152 325.267 247.495 325.932 247.495C326.597 247.495 327.015 247.152 327.015 246.203V244.303H328.991V244.302Z" fill="#36013F"/>
<path d="M332.355 241.567H335.223V243.467H332.355V247.361H335.964V249.261H330.265V235.963H335.964V237.862H332.355V241.567Z" fill="#36013F"/>
<path d="M343.453 239.249V240.978C343.453 243.106 342.427 244.265 340.338 244.265H339.35V249.261H337.26V235.963H340.338C342.426 235.963 343.453 237.121 343.453 239.249ZM339.349 237.863V242.365H340.337C341.001 242.365 341.362 242.061 341.362 241.111V239.117C341.362 238.167 341.001 237.863 340.337 237.863H339.349Z" fill="#36013F"/>
<path d="M343.816 235.963H350.275V237.862H348.09V249.26H346V237.862H343.815V235.963H343.816Z" fill="#36013F"/>
</g>
<mask id="mask1_606_1516" style="mask-type:luminance" maskUnits="userSpaceOnUse" x="155" y="42" width="239" height="233">
<path d="M393.244 48.9953V267.295C393.244 271.135 390.134 274.245 386.294 274.245H162.064C158.224 274.245 155.114 271.135 155.114 267.295V48.9953C155.114 45.1553 158.224 42.0453 162.064 42.0453H386.294C390.134 42.0453 393.244 45.1553 393.244 48.9953Z" fill="white"/>
</mask>
<g mask="url(#mask1_606_1516)">
<path d="M247.185 255.903H191.989C184.8 255.903 178.971 250.075 178.971 242.885C178.971 235.696 184.799 229.867 191.989 229.867H247.185C254.374 229.867 260.203 235.695 260.203 242.885C260.202 250.074 254.374 255.903 247.185 255.903Z" fill="#F4D35E"/>
<mask id="mask2_606_1516" style="mask-type:luminance" maskUnits="userSpaceOnUse" x="178" y="229" width="83" height="27">
<path d="M247.185 255.903H191.989C184.8 255.903 178.971 250.075 178.971 242.885C178.971 235.696 184.799 229.867 191.989 229.867H247.185C254.374 229.867 260.203 235.695 260.203 242.885C260.202 250.074 254.374 255.903 247.185 255.903Z" fill="white"/>
</mask>
<g mask="url(#mask2_606_1516)">
<path opacity="0.6" d="M247.185 255.903H191.989C184.8 255.903 178.971 250.075 178.971 242.885C178.971 235.696 184.799 229.867 191.989 229.867H247.185C254.374 229.867 260.203 235.695 260.203 242.885C260.202 250.074 254.374 255.903 247.185 255.903Z" fill="white"/>
</g>
<path d="M247.185 255.903H191.989C184.8 255.903 178.971 250.075 178.971 242.885C178.971 235.696 184.799 229.867 191.989 229.867H247.185C254.374 229.867 260.203 235.695 260.203 242.885C260.202 250.074 254.374 255.903 247.185 255.903Z" stroke="#36013F" stroke-miterlimit="10" stroke-linecap="round" stroke-linejoin="round"/>
<path d="M196.726 235.963H200.032C202.122 235.963 203.147 237.121 203.147 239.249V245.974C203.147 248.102 202.122 249.261 200.032 249.261H196.726V235.963ZM198.816 237.863V247.361H199.994C200.659 247.361 201.058 247.019 201.058 246.07V239.155C201.058 238.205 200.66 237.863 199.994 237.863H198.816Z" fill="#36013F"/>
<path d="M206.569 241.567H209.437V243.467H206.569V247.361H210.178V249.261H204.479V235.963H210.178V237.862H206.569V241.567Z" fill="#36013F"/>
<path d="M217.534 244.302V246.07C217.534 248.197 216.47 249.413 214.418 249.413C212.366 249.413 211.303 248.197 211.303 246.07V239.155C211.303 237.027 212.366 235.811 214.418 235.811C216.47 235.811 217.534 237.027 217.534 239.155V240.446H215.558V239.022C215.558 238.072 215.14 237.711 214.475 237.711C213.81 237.711 213.392 238.072 213.392 239.022V246.203C213.392 247.152 213.81 247.495 214.475 247.495C215.14 247.495 215.558 247.152 215.558 246.203V244.303H217.534V244.302Z" fill="#36013F"/>
<path d="M218.808 235.963H220.898V247.36H224.336V249.26H218.808V235.963Z" fill="#36013F"/>
<path d="M225.25 235.963H227.34V249.261H225.25V235.963Z" fill="#36013F"/>
<path d="M230.76 239.629H230.723V249.261H228.842V235.963H231.463L233.572 243.922H233.609V235.963H235.471V249.261H233.324L230.76 239.629Z" fill="#36013F"/>
<path d="M239.065 241.567H241.933V243.467H239.065V247.361H242.674V249.261H236.975V235.963H242.674V237.862H239.065V241.567Z" fill="#36013F"/>
</g>
<mask id="mask3_606_1516" style="mask-type:luminance" maskUnits="userSpaceOnUse" x="155" y="42" width="239" height="233">
<path d="M393.244 48.9953V267.295C393.244 271.135 390.134 274.245 386.294 274.245H162.064C158.224 274.245 155.114 271.135 155.114 267.295V48.9953C155.114 45.1553 158.224 42.0453 162.064 42.0453H386.294C390.134 42.0453 393.244 45.1553 393.244 48.9953Z" fill="white"/>
</mask>
<g mask="url(#mask3_606_1516)">
<path d="M328.389 146.834C328.389 158.014 325.008 168.398 319.206 177.034C309.468 191.512 292.934 201.043 274.18 201.043C256.196 201.043 240.251 192.283 230.397 178.791C223.841 169.832 219.971 158.785 219.971 146.834C219.971 116.899 244.245 92.6252 274.18 92.6252C304.115 92.6252 328.389 116.899 328.389 146.834Z" fill="#F4D35E" stroke="#36013F" stroke-miterlimit="10" stroke-linecap="round" stroke-linejoin="round"/>
<path d="M319.207 177.034C309.469 191.512 292.935 201.043 274.181 201.043C256.197 201.043 240.252 192.283 230.398 178.791C230.713 178.252 231.036 177.714 231.368 177.183C233.398 173.876 245.606 168.638 262.919 166.757C266.623 166.343 270.56 166.094 274.679 166.053C279.03 166.003 283.315 166.285 287.409 166.799C302.433 168.672 314.947 173.652 319.207 177.034Z" fill="#757575" stroke="#36013F" stroke-miterlimit="10" stroke-linecap="round" stroke-linejoin="round"/>
<path d="M288.653 168.076C288.653 168.076 284.853 175.818 275.113 175.827C267.138 175.827 261.322 168.909 261.322 168.909C264.127 166.391 264.297 161.731 263.885 158.066C263.554 155.073 262.837 152.743 262.837 152.743H286.692C285.24 157.51 285.294 160.934 285.859 163.317C286.691 166.822 288.653 168.076 288.653 168.076Z" fill="white" stroke="#36013F" stroke-miterlimit="10" stroke-linecap="round" stroke-linejoin="round"/>
<path d="M285.857 163.318C268.615 167.834 265.192 157.986 265.192 157.986L263.884 158.067C263.553 155.074 262.836 152.744 262.836 152.744H286.691C285.239 157.511 285.293 160.934 285.857 163.318Z" fill="#36013F"/>
<path d="M291.885 135.994C291.885 135.994 293.807 133.906 294.751 134.593C295.695 135.28 296.81 137.225 296.295 138.998C295.78 140.771 293.549 143.861 293.378 145.663C293.206 147.465 292.049 149.506 290.783 148.314C289.516 147.121 291.885 135.994 291.885 135.994Z" fill="white" stroke="#36013F" stroke-miterlimit="10" stroke-linecap="round" stroke-linejoin="round"/>
<path d="M257.643 135.994C257.643 135.994 255.721 133.906 254.777 134.593C253.833 135.28 252.718 137.225 253.233 138.998C253.748 140.771 255.979 143.861 256.15 145.663C256.322 147.465 257.478 149.506 258.745 148.314C260.012 147.121 257.643 135.994 257.643 135.994Z" fill="white" stroke="#36013F" stroke-miterlimit="10" stroke-linecap="round" stroke-linejoin="round"/>
<path d="M274.358 111.863C298.521 111.863 292.777 144.045 288.33 154.377C286.769 158.005 278.676 162.767 274.764 162.767C271.125 162.767 262.797 157.076 261.321 153.668C256.823 143.285 251.327 111.863 274.358 111.863Z" fill="white" stroke="#36013F" stroke-miterlimit="10" stroke-linecap="round" stroke-linejoin="round"/>
<path d="M278.454 131.733C278.454 131.733 284.747 129.788 286.692 133.678" stroke="#36013F" stroke-miterlimit="10" stroke-linecap="round" stroke-linejoin="round"/>
<path d="M283.113 137.024C283.113 137.767 282.736 138.368 282.271 138.368C281.806 138.368 281.429 137.766 281.429 137.024C281.429 136.282 281.806 135.68 282.271 135.68C282.736 135.68 283.113 136.282 283.113 137.024Z" fill="#36013F"/>
<path d="M271.074 131.733C271.074 131.733 264.781 129.788 262.836 133.678" stroke="#36013F" stroke-miterlimit="10" stroke-linecap="round" stroke-linejoin="round"/>
<path d="M266.415 137.024C266.415 137.767 266.792 138.368 267.257 138.368C267.722 138.368 268.099 137.766 268.099 137.024C268.099 136.282 267.722 135.68 267.257 135.68C266.793 135.68 266.415 136.282 266.415 137.024Z" fill="#36013F"/>
<path d="M284.36 120.091C284.36 120.091 275.693 123.352 265.74 120.091C265.74 120.091 262.479 119.9 261.192 121.54C259.905 123.18 261.192 128.243 261.535 130.302C261.878 132.361 258.703 133.792 259.132 138.997L257.904 140.793C257.904 140.793 254.495 132.417 255.353 125.209C256.211 118.001 260.762 115.199 260.762 115.199C260.762 115.199 262.836 108.974 274.995 109.021C288.099 109.071 289.422 116.165 289.422 116.165C289.422 116.165 298.307 122.09 291.735 141.397L290.309 138.997C290.309 138.997 291.002 135.107 288.65 131.675C287.505 130.004 289.337 124.982 288.907 122.408C288.479 119.834 284.36 120.091 284.36 120.091Z" fill="#36013F"/>
<path d="M276.201 135.68C276.201 135.68 276.278 141.562 277.817 143.47C278.609 144.452 277.063 146.576 274.687 146.951" stroke="#36013F" stroke-miterlimit="10" stroke-linecap="round" stroke-linejoin="round"/>
<path d="M269.473 150.367C269.473 150.367 270.065 152.546 271.72 153.255C273.375 153.964 278.397 153.669 279.342 153.078C280.287 152.487 280.76 150.557 280.76 150.557" fill="white"/>
<path d="M269.473 150.367C269.473 150.367 270.065 152.546 271.72 153.255C273.375 153.964 278.397 153.669 279.342 153.078C280.287 152.487 280.76 150.557 280.76 150.557" stroke="#36013F" stroke-miterlimit="10" stroke-linecap="round" stroke-linejoin="round"/>
<path d="M268.943 150.241C268.943 150.241 273.943 151.659 281.428 150.241" stroke="#36013F" stroke-miterlimit="10" stroke-linecap="round" stroke-linejoin="round"/>
<path d="M286.691 120.345C286.691 120.345 283.99 124.354 275.117 125.21C275.117 125.21 276.015 124.473 276.687 122.962C276.687 122.962 273.069 126.047 267.258 125.21C261.447 124.373 258.249 128.889 258.249 128.889L256.744 135.68C256.744 135.68 251.43 129.642 255.216 120.046L253.855 121.175C253.855 121.175 255.36 108.287 270.821 107.817L268.944 106.688C268.944 106.688 284.38 103.396 290.411 113.555C290.411 113.555 295.784 114.572 297.101 123.847L295.596 122.868C295.596 122.868 297.985 130.578 293.027 137.024C293.027 137.024 286.691 126.819 286.691 120.345Z" fill="#36013F"/>
</g>
<mask id="mask4_606_1516" style="mask-type:luminance" maskUnits="userSpaceOnUse" x="155" y="42" width="239" height="233">
<path d="M393.244 48.9953V267.295C393.244 271.135 390.134 274.245 386.294 274.245H162.064C158.224 274.245 155.114 271.135 155.114 267.295V48.9953C155.114 45.1553 158.224 42.0453 162.064 42.0453H386.294C390.134 42.0453 393.244 45.1553 393.244 48.9953Z" fill="white"/>
</mask>
<g mask="url(#mask4_606_1516)">
<path opacity="0.5" d="M333.11 76.4042H215.251C213.587 76.4042 212.239 75.0553 212.239 73.3923C212.239 71.7283 213.588 70.3802 215.251 70.3802H333.11C334.774 70.3802 336.122 71.7293 336.122 73.3923C336.122 75.0563 334.774 76.4042 333.11 76.4042Z" fill="#36013F"/>
</g>
<mask id="mask5_606_1516" style="mask-type:luminance" maskUnits="userSpaceOnUse" x="155" y="42" width="239" height="233">
<path d="M393.244 48.9953V267.295C393.244 271.135 390.134 274.245 386.294 274.245H162.064C158.224 274.245 155.114 271.135 155.114 267.295V48.9953C155.114 45.1553 158.224 42.0453 162.064 42.0453H386.294C390.134 42.0453 393.244 45.1553 393.244 48.9953Z" fill="white"/>
</mask>
<g mask="url(#mask5_606_1516)">
<g opacity="0.4">
<path d="M324.704 209.544H223.657C223.002 209.544 222.47 209.013 222.47 208.357C222.47 207.702 223.001 207.17 223.657 207.17H324.704C325.359 207.17 325.891 207.701 325.891 208.357C325.89 209.013 325.359 209.544 324.704 209.544Z" fill="#36013F"/>
<path d="M314.704 215.885H233.657C233.002 215.885 232.47 215.354 232.47 214.698C232.47 214.042 233.001 213.511 233.657 213.511H314.704C315.359 213.511 315.891 214.042 315.891 214.698C315.89 215.354 315.359 215.885 314.704 215.885Z" fill="#36013F"/>
</g>
</g>
<mask id="mask6_606_1516" style="mask-type:luminance" maskUnits="userSpaceOnUse" x="155" y="42" width="239" height="233">
<path d="M393.244 48.9953V267.295C393.244 271.135 390.134 274.245 386.294 274.245H162.064C158.224 274.245 155.114 271.135 155.114 267.295V48.9953C155.114 45.1553 158.224 42.0453 162.064 42.0453H386.294C390.134 42.0453 393.244 45.1553 393.244 48.9953Z" fill="white"/>
</mask>
<g mask="url(#mask6_606_1516)">
<path d="M327.545 198.456H310.699C308.047 198.456 305.896 196.306 305.896 193.653V176.807C305.896 174.155 308.046 172.004 310.699 172.004H327.545C330.197 172.004 332.348 174.154 332.348 176.807V193.653C332.348 196.306 330.198 198.456 327.545 198.456Z" fill="#36013F" stroke="white" stroke-miterlimit="10" stroke-linecap="round" stroke-linejoin="round"/>
<path d="M325.699 183.731H320.623V178.654H317.623V183.731H312.546V186.731H317.623V191.807H320.623V186.731H325.699V183.731Z" fill="white"/>
</g>
<mask id="mask7_606_1516" style="mask-type:luminance" maskUnits="userSpaceOnUse" x="155" y="42" width="239" height="233">
<path d="M393.244 48.9953V267.295C393.244 271.135 390.134 274.245 386.294 274.245H162.064C158.224 274.245 155.114 271.135 155.114 267.295V48.9953C155.114 45.1553 158.224 42.0453 162.064 42.0453H386.294C390.134 42.0453 393.244 45.1553 393.244 48.9953Z" fill="white"/>
</mask>
<g mask="url(#mask7_606_1516)">
<path opacity="0.3" d="M386.563 53.1493C386.563 55.8443 384.378 58.0283 381.684 58.0283C378.989 58.0283 376.805 55.8433 376.805 53.1493C376.805 50.4543 378.99 48.2703 381.684 48.2703C384.378 48.2703 386.563 50.4543 386.563 53.1493Z" fill="#36013F"/>
</g>
<mask id="mask8_606_1516" style="mask-type:luminance" maskUnits="userSpaceOnUse" x="155" y="42" width="239" height="233">
<path d="M393.244 48.9953V267.295C393.244 271.135 390.134 274.245 386.294 274.245H162.064C158.224 274.245 155.114 271.135 155.114 267.295V48.9953C155.114 45.1553 158.224 42.0453 162.064 42.0453H386.294C390.134 42.0453 393.244 45.1553 393.244 48.9953Z" fill="white"/>
</mask>
<g mask="url(#mask8_606_1516)">
<path opacity="0.3" d="M372.563 53.1493C372.563 55.8443 370.378 58.0283 367.684 58.0283C364.989 58.0283 362.805 55.8433 362.805 53.1493C362.805 50.4543 364.99 48.2703 367.684 48.2703C370.378 48.2703 372.563 50.4543 372.563 53.1493Z" fill="#36013F"/>
</g>
<mask id="mask9_606_1516" style="mask-type:luminance" maskUnits="userSpaceOnUse" x="155" y="42" width="239" height="233">
<path d="M393.244 48.9953V267.295C393.244 271.135 390.134 274.245 386.294 274.245H162.064C158.224 274.245 155.114 271.135 155.114 267.295V48.9953C155.114 45.1553 158.224 42.0453 162.064 42.0453H386.294C390.134 42.0453 393.244 45.1553 393.244 48.9953Z" fill="white"/>
</mask>
<g mask="url(#mask9_606_1516)">
<path opacity="0.3" d="M293.814 249.855C293.814 249.855 300.074 251.205 300.294 255.765C300.774 265.565 300.754 265.865 293.874 264.995C293.874 264.995 289.714 270.705 279.634 269.065C279.634 269.065 278.314 271.045 276.184 274.245H258.334C263.284 268.335 267.264 263.445 269.004 261.125C275.394 252.615 305.254 240.075 305.254 240.075C305.254 240.075 305.154 243.355 293.814 249.855Z" fill="black" fill-opacity="0.7"/>
</g>
<path d="M393.244 48.9953V267.295C393.244 271.135 390.134 274.245 386.294 274.245H162.064C158.224 274.245 155.114 271.135 155.114 267.295V48.9953C155.114 45.1553 158.224 42.0453 162.064 42.0453H386.294C390.134 42.0453 393.244 45.1553 393.244 48.9953Z" stroke="#36013F" stroke-miterlimit="10" stroke-linecap="round" stroke-linejoin="round"/>
<path d="M68.563 415.028C68.563 415.028 70.327 402.215 71.637 396.94C72.947 391.665 80.683 371.222 82.303 359.785L62.563 344.06C62.563 344.06 55.123 382.423 55.123 388.445L51.057 401.555" fill="white"/>
<path d="M68.563 415.028C68.563 415.028 70.327 402.215 71.637 396.94C72.947 391.665 80.683 371.222 82.303 359.785L62.563 344.06C62.563 344.06 55.123 382.423 55.123 388.445L51.057 401.555" stroke="#36013F" stroke-miterlimit="10" stroke-linecap="round" stroke-linejoin="round"/>
<path d="M88.134 374.259C84.004 371.109 79.924 367.779 75.914 364.267C70.104 359.223 64.444 353.828 59.004 348.12C60.254 342.243 61.894 335.4 63.904 329.21C66.214 322.054 70.864 317.794 75.024 315.32C75.094 315.272 75.164 315.235 75.224 315.199C75.544 315.018 75.854 314.837 76.154 314.68C76.734 314.366 77.294 314.089 77.834 313.847C81.004 312.423 83.394 312.025 83.394 312.025L87.644 367.899L88.134 374.259Z" fill="#F4D35E"/>
<mask id="mask10_606_1516" style="mask-type:luminance" maskUnits="userSpaceOnUse" x="59" y="312" width="30" height="63">
<path d="M88.134 374.259C84.004 371.109 79.924 367.779 75.914 364.267C70.104 359.223 64.444 353.828 59.004 348.12C60.254 342.243 61.894 335.4 63.904 329.21C66.214 322.054 70.864 317.794 75.024 315.32C75.094 315.272 75.164 315.235 75.224 315.199C75.544 315.018 75.854 314.837 76.154 314.68C76.734 314.366 77.294 314.089 77.834 313.847C81.004 312.423 83.394 312.025 83.394 312.025L87.644 367.899L88.134 374.259Z" fill="white"/>
</mask>
<g mask="url(#mask10_606_1516)">
<path opacity="0.3" d="M88.134 374.259C84.004 371.109 79.924 367.779 75.914 364.267C70.104 359.223 64.444 353.828 59.004 348.12C60.254 342.243 61.894 335.4 63.904 329.21C66.214 322.054 70.864 317.794 75.024 315.32C75.094 315.272 75.164 315.235 75.224 315.199C75.544 315.018 75.854 314.837 76.154 314.68C76.734 314.366 77.294 314.089 77.834 313.847C81.004 312.423 83.394 312.025 83.394 312.025L87.644 367.899L88.134 374.259Z" fill="black" fill-opacity="0.7"/>
</g>
<path d="M88.134 374.259C84.004 371.109 79.924 367.779 75.914 364.267C70.104 359.223 64.444 353.828 59.004 348.12C60.254 342.243 61.894 335.4 63.904 329.21C66.214 322.054 70.864 317.794 75.024 315.32C75.094 315.272 75.164 315.235 75.224 315.199C75.544 315.018 75.854 314.837 76.154 314.68C76.734 314.366 77.294 314.089 77.834 313.847C81.004 312.423 83.394 312.025 83.394 312.025L87.644 367.899L88.134 374.259Z" stroke="#36013F" stroke-miterlimit="10" stroke-linecap="round" stroke-linejoin="round"/>
<path d="M67.566 343.206C67.566 343.206 69.863 358.834 80.422 364.799" stroke="#36013F" stroke-miterlimit="10" stroke-linecap="round" stroke-linejoin="round"/>
<path d="M173.434 355.855C173.434 363.885 166.924 396.215 166.924 396.215L166.704 424.645C166.704 424.645 153.234 429.115 131.494 429.115C104.854 429.115 93.054 421.985 92.014 421.315C91.984 421.295 91.964 421.285 91.934 421.265L95.894 401.555C95.894 401.555 74.924 351.995 74.484 350.295C73.834 347.775 73.274 345.225 72.824 342.685C71.704 336.415 71.294 330.225 71.954 324.855C72.384 321.215 73.314 317.935 74.864 315.255C74.974 315.055 75.094 314.855 75.224 314.655C75.774 313.775 76.404 312.955 77.114 312.225C77.174 312.155 77.234 312.095 77.304 312.025C77.954 311.375 78.654 310.765 79.414 310.195C79.414 310.195 79.424 310.195 79.424 310.185C79.674 309.995 79.934 309.815 80.194 309.635C80.404 309.485 80.624 309.335 80.844 309.195C80.984 309.105 81.124 309.005 81.264 308.925C81.444 308.805 81.624 308.695 81.814 308.585C82.094 308.415 82.374 308.255 82.664 308.095C98.454 299.345 127.844 300.695 127.844 300.695C128.134 300.595 128.454 300.535 128.804 300.505C128.834 300.495 128.854 300.495 128.874 300.495C129.404 300.455 129.994 300.505 130.624 300.635C137.944 302.055 151.344 314.005 161.214 327.605C164.254 331.785 166.954 336.125 169.034 340.365C171.764 345.895 173.434 351.245 173.434 355.855Z" fill="#F4D35E"/>
<path opacity="0.3" d="M173.254 353.145C165.234 350.865 158.424 345.795 158.424 345.795C151.334 347.125 144.494 340.065 142.714 336.285L165.974 334.785C167.104 336.645 168.124 338.515 169.034 340.365C171.244 344.845 172.764 349.205 173.254 353.145Z" fill="black" fill-opacity="0.7"/>
<path opacity="0.3" d="M100.664 406.645C100.664 406.645 105.894 429.025 92.014 421.315C91.984 421.295 91.964 421.285 91.934 421.265L95.894 401.555C95.894 401.555 74.924 351.995 74.484 350.295C73.834 347.775 73.274 345.225 72.824 342.685C71.704 336.415 71.294 330.225 71.954 324.855C72.384 321.215 73.314 317.935 74.864 315.255C74.974 315.055 75.094 314.855 75.224 314.655C75.774 313.775 76.404 312.955 77.114 312.225C77.174 312.155 77.234 312.095 77.304 312.025C77.954 311.375 78.654 310.765 79.414 310.195C79.414 310.195 79.424 310.195 79.424 310.185C79.674 309.995 79.934 309.815 80.194 309.635C80.404 309.485 80.624 309.335 80.844 309.195C80.984 309.105 81.124 309.005 81.264 308.925C81.444 308.805 81.624 308.695 81.814 308.585C82.094 308.415 82.374 308.255 82.664 308.095C97.194 309.215 113.344 316.075 116.464 330.215C116.464 330.215 115.144 351.845 110.394 359.755C107.444 364.685 106.444 387.705 121.034 381.045C116.464 404.065 100.664 406.645 100.664 406.645Z" fill="black" fill-opacity="0.7"/>
<path d="M91.936 421.27L95.892 401.556C95.892 401.556 74.924 351.996 74.483 350.296C73.833 347.776 73.273 345.226 72.823 342.686C71.703 336.416 71.293 330.226 71.953 324.856C72.383 321.216 73.313 317.936 74.863 315.256C74.973 315.056 75.093 314.856 75.223 314.656C75.773 313.776 76.403 312.956 77.113 312.226C77.173 312.156 77.233 312.096 77.303 312.026C77.953 311.376 78.653 310.766 79.413 310.196C79.413 310.196 79.423 310.196 79.423 310.186C93.983 299.146 127.843 300.696 127.843 300.696C128.133 300.596 128.453 300.536 128.803 300.506C128.833 300.496 128.853 300.496 128.873 300.496C129.403 300.456 129.993 300.506 130.623 300.636C137.943 302.056 151.343 314.006 161.213 327.606C164.253 331.786 166.953 336.126 169.033 340.366C171.763 345.896 173.433 351.246 173.433 355.856C173.433 363.886 166.923 396.216 166.923 396.216L166.705 424.644" stroke="#36013F" stroke-miterlimit="10" stroke-linecap="round" stroke-linejoin="round"/>
<path d="M142.495 255.443C141.299 253.964 135.998 250.479 135.998 250.479C134.942 243.564 134.373 234.34 127.216 227.198C117.427 217.43 94.836 220.511 87.438 235.086C72.662 264.195 100.588 291.613 134.75 285.819C137.66 285.326 139.623 282.474 140.02 268.941L140.935 267.057C140.935 267.057 139.991 263.829 139.7 262.201C141.425 260.518 143.373 256.528 142.495 255.443Z" fill="white" stroke="#36013F" stroke-miterlimit="10" stroke-linecap="round" stroke-linejoin="round"/>
<path d="M134.09 239.638C134.09 239.638 132.801 241.636 132.111 244.216" stroke="#36013F" stroke-miterlimit="10" stroke-linecap="round" stroke-linejoin="round"/>
<path d="M134.61 252.655C134.61 252.655 136.994 254.095 138.074 258.631" stroke="#36013F" stroke-miterlimit="10" stroke-linecap="round" stroke-linejoin="round"/>
<path d="M140.62 267.706C140.62 267.706 139.693 269.208 135.828 268.77" stroke="#36013F" stroke-miterlimit="10" stroke-linecap="round" stroke-linejoin="round"/>
<path d="M130.477 223.38C130.477 223.38 139.482 219.677 136.876 237.273C134.27 254.869 121.267 275.808 110.298 271.868L110.482 270.296C110.482 270.296 120.087 274.089 128.167 257.394C136.247 240.699 135.574 225.436 130.951 228.081L130.477 223.38Z" fill="#36013F"/>
<path d="M129.659 250.665C129.659 250.665 126.223 259.738 123.476 262.623C123.476 262.623 122.362 259.15 119.711 259.129C117.061 259.108 114.689 252.043 114.689 252.043L129.659 250.665Z" fill="#36013F"/>
<path d="M125.959 251.082C125.959 251.082 119.644 266.495 124.275 278.393C128.906 290.291 141.957 299.234 141.957 299.234L137.746 297.325C137.746 297.325 126.667 290.035 122.797 277.412C118.926 264.788 122.631 252.908 122.631 252.908L125.959 251.082Z" fill="#36013F"/>
<path d="M73.887 230.578C73.887 230.578 63.312 234.924 63.925 250.493C64.539 266.063 75.19 279.677 77.34 299.58C79.21 316.888 60.373 332.13 79.451 352.356C79.451 352.356 71.08 339.354 73.636 324.817C76.192 310.28 84.931 312.367 78.448 288.699C71.965 265.031 58.182 251.022 72.419 235.939L73.887 230.578Z" fill="#36013F"/>
<path d="M135.286 295.238C116.022 284.497 121.261 261.569 121.261 261.569C135.772 250.897 137.701 230.855 135.045 225.737C132.389 220.618 126.588 222.344 126.588 222.344C103.495 211.36 75.074 221.617 69.676 237.78C62.759 258.491 74.571 274.409 80.344 291.81C85.528 307.434 73.528 310.264 73.566 325.826C71.29 354.788 101.035 366.939 101.035 366.939C101.035 366.939 98.464 365.554 98.464 362.39C98.464 359.225 106.574 359.225 111.915 350.294C116.343 342.889 116.693 324.814 118.176 316.075C120.126 308.164 122.674 301.845 127.843 300.691C141.468 297.649 153.213 310.87 153.213 310.87C153.213 310.87 154.549 305.979 135.286 295.238Z" fill="#36013F"/>
<g opacity="0.3">
<path d="M129.659 225.511C131.76 229.203 116 248.72 110.298 265.599C104.596 282.478 110.399 292.356 110.399 292.356" stroke="white" stroke-miterlimit="10" stroke-linecap="round" stroke-linejoin="round"/>
<path d="M94.31 230.578C94.31 230.578 77.167 245.346 86.925 272.352C96.683 299.358 92.361 317.987 89.116 332.541C85.87 347.094 88.508 352.105 92.464 356.062" stroke="white" stroke-miterlimit="10" stroke-linecap="round" stroke-linejoin="round"/>
<path d="M115.936 275.158C115.936 275.158 125.132 285.518 118.82 300.482C112.508 315.446 109.079 326.153 106.705 337.81C104.331 349.467 99.057 352.356 99.057 352.356" stroke="white" stroke-miterlimit="10" stroke-linecap="round" stroke-linejoin="round"/>
<path d="M116.464 223.055C116.464 223.055 106.97 222.61 102.486 234.742C98.002 246.874 102.222 267.837 100.64 275.158" stroke="white" stroke-miterlimit="10" stroke-linecap="round" stroke-linejoin="round"/>
<path d="M91.936 223.055C91.936 223.055 78.011 223.633 73.569 242.885C69.127 262.137 82.501 278.314 83.922 293.319C85.343 308.324 76.904 322.206 77.431 332.54C77.959 342.874 83.922 348.348 83.922 348.348" stroke="white" stroke-miterlimit="10" stroke-linecap="round" stroke-linejoin="round"/>
</g>
<path d="M178.969 302.242C178.969 302.242 209.43 304.512 213.782 304.512C218.134 304.512 258.485 264.558 265.606 256.645C272.727 248.732 303.584 238.889 303.584 238.889C303.584 238.889 303.188 242.153 291.32 247.619C291.32 247.619 297.438 249.518 297.254 254.077C296.858 263.886 296.809 264.183 290.034 262.7C290.034 262.7 285.386 268.028 275.496 265.501C275.496 265.501 251.76 295.018 241.276 308.469C230.793 321.92 226.441 326.432 222.485 327.934C218.529 329.436 170.265 332.542 170.265 332.542L178.969 302.242Z" fill="white" stroke="#36013F" stroke-miterlimit="10" stroke-linecap="round" stroke-linejoin="round"/>
<path d="M140.62 338.138C156.42 348.028 182.925 335.764 182.925 335.764C182.925 335.764 187.672 314.246 182.925 300.477C182.925 300.477 149.689 294.002 131.494 300.245C129.614 300.89 128.216 302.358 127.3 304.377" fill="#F4D35E"/>
<path d="M140.62 338.138C156.42 348.028 182.925 335.764 182.925 335.764C182.925 335.764 187.672 314.246 182.925 300.477C182.925 300.477 149.689 294.002 131.494 300.245C129.614 300.89 128.216 302.358 127.3 304.377" stroke="#36013F" stroke-miterlimit="10" stroke-linecap="round" stroke-linejoin="round"/>
<path d="M178.725 299.759C178.725 299.759 183.057 314.786 179.365 333.511" stroke="#36013F" stroke-miterlimit="10" stroke-linecap="round" stroke-linejoin="round"/>
<path d="M173.431 313.599C173.431 313.599 162.486 331.533 148.376 334.17" stroke="#36013F" stroke-miterlimit="10" stroke-linecap="round" stroke-linejoin="round"/>
<path d="M163.206 341.456C163.206 341.456 155.893 350.126 146.926 350.126" stroke="#36013F" stroke-miterlimit="10" stroke-linecap="round" stroke-linejoin="round"/>
<path d="M156.164 341.995C156.164 341.995 157.364 344.715 156.174 347.285L156.164 347.295C156.164 347.295 157.404 352.505 155.064 360.015C153.344 365.555 153.424 381.265 152.624 392.315C152.624 392.315 155.162 405.643 155.065 425.687" stroke="#36013F" stroke-miterlimit="10" stroke-linecap="round" stroke-linejoin="round"/>
<path d="M139.254 298.414C139.254 298.414 152.859 297.511 160.903 307.006" stroke="#36013F" stroke-miterlimit="10" stroke-linecap="round" stroke-linejoin="round"/>
<path d="M294.783 256.764C294.783 256.764 292.805 260.226 290.431 261.017C290.431 261.017 290.258 264.629 284.213 265.84" stroke="#36013F" stroke-miterlimit="10" stroke-linecap="round" stroke-linejoin="round"/>
<path d="M293.113 259.04C293.113 259.04 294.139 259.633 294.337 260.523" stroke="#36013F" stroke-miterlimit="10" stroke-linecap="round" stroke-linejoin="round"/>
<path d="M95.892 401.555C95.892 401.555 109.956 419.885 123.363 413.291" stroke="#36013F" stroke-miterlimit="10" stroke-linecap="round" stroke-linejoin="round"/>
<path d="M131.494 363.595C131.494 363.595 122.002 392.72 100.639 391.402" stroke="#36013F" stroke-miterlimit="10" stroke-linecap="round" stroke-linejoin="round"/>
</svg>
